<?xml version="1.0" encoding="UTF-8" standalone="no"?>
<!-- Generator: Adobe Illustrator 23.0.0, SVG Export Plug-In . SVG Version: 6.00 Build 0)  -->

<svg
   xmlns:dc="http://purl.org/dc/elements/1.1/"
   xmlns:cc="http://creativecommons.org/ns#"
   xmlns:rdf="http://www.w3.org/1999/02/22-rdf-syntax-ns#"
   xmlns:svg="http://www.w3.org/2000/svg"
   xmlns="http://www.w3.org/2000/svg"
   xmlns:sodipodi="http://sodipodi.sourceforge.net/DTD/sodipodi-0.dtd"
   xmlns:inkscape="http://www.inkscape.org/namespaces/inkscape"
   version="1.1"
   x="0px"
   y="0px"
   viewBox="0 0 500 500"
   style="enable-background:new 0 0 500 500;"
   xml:space="preserve"
   id="svg194"
   sodipodi:docname="background.svg"
   inkscape:version="0.92.3 (2405546, 2018-03-11)"><metadata
   id="metadata200"><rdf:RDF><cc:Work
       rdf:about=""><dc:format>image/svg+xml</dc:format><dc:type
         rdf:resource="http://purl.org/dc/dcmitype/StillImage" /></cc:Work></rdf:RDF></metadata><defs
   id="defs198" /><sodipodi:namedview
   pagecolor="#ffffff"
   bordercolor="#666666"
   borderopacity="1"
   objecttolerance="10"
   gridtolerance="10"
   guidetolerance="10"
   inkscape:pageopacity="0"
   inkscape:pageshadow="2"
   inkscape:window-width="1920"
   inkscape:window-height="1024"
   id="namedview196"
   showgrid="false"
   inkscape:zoom="1.888"
   inkscape:cx="278.38249"
   inkscape:cy="241.7439"
   inkscape:window-x="0"
   inkscape:window-y="0"
   inkscape:window-maximized="1"
   inkscape:current-layer="svg194" />
<style
   type="text/css"
   id="style2">
	.st0{fill:url(#SVGID_1_);}
	.st1{fill:#FFFFFF;}
	.st2{opacity:0.2;fill:#FFA700;}
	.st3{fill:#FCB618;}
</style>
<g
   id="BACKGROUND">
	<g
   id="g179">
		<g
   id="g177">
			<linearGradient
   id="SVGID_1_"
   gradientUnits="userSpaceOnUse"
   x1="0"
   y1="500"
   x2="500"
   y2="4.547474e-13">
				<stop
   offset="0.0104"
   style="stop-color:#170B42"
   id="stop4" />
				<stop
   offset="0.4549"
   style="stop-color:#0C2258"
   id="stop6" />
				<stop
   offset="0.9948"
   style="stop-color:#00396E"
   id="stop8" />
			</linearGradient>
			<rect
   class="st0"
   width="500"
   height="500"
   id="rect11" />
			<g
   id="g175">
				<path
   class="st1"
   d="M322.33,109.46c-1.08,0-1.08,1.67,0,1.67C323.4,111.13,323.4,109.46,322.33,109.46z"
   id="path13" />
				<path
   class="st1"
   d="M137.96,122.83c-1.08,0-1.08,1.67,0,1.67C139.04,124.5,139.04,122.83,137.96,122.83z"
   id="path15" />
				<path
   class="st1"
   d="M49.4,215.29c-1.08,0-1.08,1.67,0,1.67C50.47,216.96,50.48,215.29,49.4,215.29z"
   id="path17" />
				<path
   class="st1"
   d="M127.94,297.17c-1.08,0-1.08,1.67,0,1.67C129.01,298.84,129.01,297.17,127.94,297.17z"
   id="path19" />
				<path
   class="st1"
   d="M188.12,213.56c-1.08,0-1.08,1.67,0,1.67C189.2,215.23,189.2,213.56,188.12,213.56z"
   id="path21" />
				<path
   class="st1"
   d="M172.58,280.39c-1.08,0-1.08,1.67,0,1.67C173.66,282.06,173.66,280.39,172.58,280.39z"
   id="path23" />
				<path
   class="st1"
   d="M28.79,265.42c-1.08,0-1.08,1.67,0,1.67C29.87,267.09,29.87,265.42,28.79,265.42z"
   id="path25" />
				<path
   class="st1"
   d="M241.6,400.97c-1.08,0-1.08,1.67,0,1.67C242.67,402.64,242.67,400.97,241.6,400.97z"
   id="path27" />
				<path
   class="st1"
   d="M376.36,400.14c-1.08,0-1.08,1.67,0,1.67C377.43,401.81,377.43,400.14,376.36,400.14z"
   id="path29" />
				<path
   class="st1"
   d="M221.22,31.72c-1.08,0-1.08,1.67,0,1.67C222.3,33.39,222.3,31.72,221.22,31.72z"
   id="path31" />
				<path
   class="st1"
   d="M27.98,98.23c-1.08,0-1.08,1.67,0,1.67C29.06,99.9,29.06,98.23,27.98,98.23z"
   id="path33" />
				<path
   class="st1"
   d="M35.03,38.61c-1.08,0-1.08,1.67,0,1.67C36.11,40.28,36.11,38.61,35.03,38.61z"
   id="path35" />
				<path
   class="st1"
   d="M164.89,39.45c-1.08,0-1.08,1.67,0,1.67C165.96,41.12,165.97,39.45,164.89,39.45z"
   id="path37" />
				<path
   class="st1"
   d="M327.59,45.52c-1.08,0-1.08,1.67,0,1.67C328.67,47.2,328.67,45.52,327.59,45.52z"
   id="path39" />
				<path
   class="st1"
   d="M234.88,87.74c-1.08,0-1.08,1.67,0,1.67C235.95,89.41,235.96,87.74,234.88,87.74z"
   id="path41" />
				<path
   class="st1"
   d="M304.3,176.28c-1.08,0-1.08,1.67,0,1.67C305.37,177.95,305.37,176.28,304.3,176.28z"
   id="path43" />
				<path
   class="st1"
   d="M209.36,135.35c-1.08,0-1.08,1.67,0,1.67C210.43,137.02,210.43,135.35,209.36,135.35z"
   id="path45" />
				<path
   class="st1"
   d="M91.5,192.76c-1.08,0-1.08,1.67,0,1.67C92.58,194.43,92.58,192.76,91.5,192.76z"
   id="path47" />
				<path
   class="st1"
   d="M326.78,256.51c-1.08,0-1.08,1.67,0,1.67C327.86,258.18,327.86,256.51,326.78,256.51z"
   id="path49" />
				<path
   class="st1"
   d="M287.24,286.03c-1.08,0-1.08,1.67,0,1.67C288.31,287.7,288.31,286.03,287.24,286.03z"
   id="path51" />
				<path
   class="st1"
   d="M279.07,363.83c-1.08,0-1.08,1.67,0,1.67C280.14,365.5,280.15,363.83,279.07,363.83z"
   id="path53" />
				<path
   class="st1"
   d="M327.59,342.6c-1.08,0-1.08,1.67,0,1.67C328.67,344.27,328.67,342.6,327.59,342.6z"
   id="path55" />
				<path
   class="st1"
   d="M401.42,268.76c-1.08,0-1.08,1.67,0,1.67C402.5,270.43,402.5,268.76,401.42,268.76z"
   id="path57" />
				<path
   class="st1"
   d="M376.36,147.89c-1.08,0-1.08,1.67,0,1.67C377.43,149.56,377.43,147.89,376.36,147.89z"
   id="path59" />
				<path
   class="st1"
   d="M403.65,81.61c-1.08,0-1.08,1.67,0,1.67C404.72,83.28,404.73,81.61,403.65,81.61z"
   id="path61" />
				<path
   class="st1"
   d="M41.6,161.26c-1.08,0-1.08,1.67,0,1.67C42.68,162.93,42.68,161.26,41.6,161.26z"
   id="path63" />
				<path
   class="st1"
   d="M128.49,345.07c-1.08,0-1.08,1.67,0,1.67C129.57,346.74,129.57,345.07,128.49,345.07z"
   id="path65" />
				<path
   class="st1"
   d="M79.74,60.36c-0.47-1.55-1.48-2.56-3.03-3.03c-0.46-0.14-0.46-0.25,0-0.39c1.55-0.47,2.56-1.48,3.03-3.03      c0.14-0.46,0.25-0.46,0.39,0c0.47,1.55,1.48,2.56,3.03,3.03c0.46,0.14,0.46,0.25,0,0.39c-1.55,0.47-2.56,1.48-3.03,3.03      C80,60.82,79.88,60.82,79.74,60.36z"
   id="path67" />
				<path
   class="st1"
   d="M458.2,326.93c-0.47-1.55-1.48-2.56-3.03-3.03c-0.46-0.14-0.46-0.25,0-0.39c1.55-0.47,2.56-1.48,3.03-3.03      c0.14-0.46,0.25-0.46,0.39,0c0.47,1.55,1.48,2.56,3.03,3.03c0.46,0.14,0.46,0.25,0,0.39c-1.55,0.47-2.56,1.48-3.03,3.03      C458.45,327.39,458.34,327.39,458.2,326.93z"
   id="path69" />
				<path
   class="st1"
   d="M23.28,195.99c-0.47-1.55-1.48-2.56-3.03-3.03c-0.46-0.14-0.46-0.25,0-0.39c1.55-0.47,2.56-1.48,3.03-3.03      c0.14-0.46,0.25-0.46,0.39,0c0.47,1.55,1.48,2.56,3.03,3.03c0.46,0.14,0.46,0.25,0,0.39c-1.55,0.47-2.56,1.48-3.03,3.03      C23.54,196.45,23.42,196.45,23.28,195.99z"
   id="path71" />
				<path
   class="st1"
   d="M199.83,385.26c-0.47-1.55-1.48-2.56-3.03-3.03c-0.46-0.14-0.46-0.25,0-0.39c1.55-0.47,2.56-1.48,3.03-3.03      c0.14-0.46,0.25-0.46,0.39,0c0.47,1.55,1.48,2.56,3.03,3.03c0.46,0.14,0.46,0.25,0,0.39c-1.55,0.47-2.56,1.48-3.03,3.03      C200.09,385.72,199.97,385.72,199.83,385.26z"
   id="path73" />
				<path
   class="st1"
   d="M371.53,29.31c-0.47-1.55-1.48-2.56-3.03-3.03c-0.46-0.14-0.46-0.25,0-0.39c1.55-0.47,2.56-1.48,3.03-3.03      c0.14-0.46,0.25-0.46,0.39,0c0.47,1.55,1.48,2.56,3.03,3.03c0.46,0.14,0.46,0.25,0,0.39c-1.55,0.47-2.56,1.48-3.03,3.03      C371.78,29.77,371.67,29.77,371.53,29.31z"
   id="path75" />
				<path
   class="st1"
   d="M458.2,56.78c-0.47-1.55-1.48-2.56-3.03-3.03c-0.46-0.14-0.46-0.25,0-0.39c1.55-0.47,2.56-1.48,3.03-3.03      c0.14-0.46,0.25-0.46,0.39,0c0.47,1.55,1.48,2.56,3.03,3.03c0.46,0.14,0.46,0.25,0,0.39c-1.55,0.47-2.56,1.48-3.03,3.03      C458.45,57.25,458.34,57.25,458.2,56.78z"
   id="path77" />
				<path
   class="st1"
   d="M59.05,20.87c-0.47-1.55-1.48-2.56-3.03-3.03c-0.46-0.14-0.46-0.25,0-0.39c1.55-0.47,2.56-1.48,3.03-3.03      c0.14-0.46,0.25-0.46,0.39,0c0.47,1.55,1.48,2.56,3.03,3.03c0.46,0.14,0.46,0.25,0,0.39c-1.55,0.47-2.56,1.48-3.03,3.03      C59.3,21.34,59.19,21.34,59.05,20.87z"
   id="path79" />
				<path
   class="st1"
   d="M384.22,218.51c-0.47-1.55-1.48-2.56-3.03-3.03c-0.46-0.14-0.46-0.25,0-0.39c1.55-0.47,2.56-1.48,3.03-3.03      c0.14-0.46,0.25-0.46,0.39,0c0.47,1.55,1.48,2.56,3.03,3.03c0.46,0.14,0.46,0.25,0,0.39c-1.55,0.47-2.56,1.48-3.03,3.03      C384.47,218.98,384.36,218.98,384.22,218.51z"
   id="path81" />
				<path
   class="st1"
   d="M300.13,142.99c-0.47-1.55-1.48-2.56-3.03-3.03c-0.46-0.14-0.46-0.25,0-0.39c1.55-0.47,2.56-1.48,3.03-3.03      c0.14-0.46,0.25-0.46,0.39,0c0.47,1.55,1.48,2.56,3.03,3.03c0.46,0.14,0.46,0.25,0,0.39c-1.55,0.47-2.56,1.48-3.03,3.03      C300.39,143.45,300.27,143.45,300.13,142.99z"
   id="path83" />
				<path
   class="st1"
   d="M129.1,32.88c-0.47-1.55-1.48-2.56-3.03-3.03c-0.46-0.14-0.46-0.25,0-0.39c1.55-0.47,2.56-1.48,3.03-3.03      c0.14-0.46,0.25-0.46,0.39,0c0.47,1.55,1.48,2.56,3.03,3.03c0.46,0.14,0.46,0.25,0,0.39c-1.55,0.47-2.56,1.48-3.03,3.03      C129.36,33.34,129.24,33.34,129.1,32.88z"
   id="path85" />
				<path
   class="st1"
   d="M266.49,338.18c-0.47-1.55-1.48-2.56-3.03-3.03c-0.46-0.14-0.46-0.25,0-0.39c1.55-0.47,2.56-1.48,3.03-3.03      c0.14-0.46,0.25-0.46,0.39,0c0.47,1.55,1.48,2.56,3.03,3.03c0.46,0.14,0.46,0.25,0,0.39c-1.55,0.47-2.56,1.48-3.03,3.03      C266.74,338.65,266.63,338.65,266.49,338.18z"
   id="path87" />
				<path
   class="st1"
   d="M177.49,187.66c-0.31-1.03-0.99-1.7-2.02-2.02c-0.31-0.09-0.31-0.17,0-0.26c1.03-0.31,1.7-0.99,2.02-2.02      c0.09-0.31,0.17-0.31,0.26,0c0.31,1.03,0.99,1.7,2.02,2.02c0.31,0.09,0.31,0.17,0,0.26c-1.03,0.31-1.7,0.99-2.02,2.02      C177.65,187.97,177.58,187.97,177.49,187.66z"
   id="path89" />
				<path
   class="st1"
   d="M331.37,402.29c-0.31-1.03-0.99-1.7-2.02-2.02c-0.31-0.09-0.31-0.17,0-0.26c1.03-0.31,1.7-0.99,2.02-2.02      c0.09-0.31,0.17-0.31,0.26,0c0.31,1.03,0.99,1.7,2.02,2.02c0.31,0.09,0.31,0.17,0,0.26c-1.03,0.31-1.7,0.99-2.02,2.02      C331.54,402.59,331.46,402.59,331.37,402.29z"
   id="path91" />
				<path
   class="st1"
   d="M74.35,292.35c-0.24-0.8-0.76-1.31-1.56-1.56c-0.24-0.07-0.24-0.13,0-0.2c0.8-0.24,1.31-0.76,1.56-1.56      c0.07-0.24,0.13-0.24,0.2,0c0.24,0.8,0.76,1.32,1.56,1.56c0.24,0.07,0.24,0.13,0,0.2c-0.8,0.24-1.31,0.76-1.56,1.56      C74.48,292.59,74.42,292.59,74.35,292.35z"
   id="path93" />
				<path
   class="st1"
   d="M98.56,249.42c-0.24-0.8-0.76-1.32-1.56-1.56c-0.24-0.07-0.24-0.13,0-0.2c0.8-0.24,1.32-0.76,1.56-1.56      c0.07-0.24,0.13-0.24,0.2,0c0.24,0.8,0.76,1.32,1.56,1.56c0.24,0.07,0.24,0.13,0,0.2c-0.8,0.24-1.32,0.76-1.56,1.56      C98.69,249.66,98.63,249.66,98.56,249.42z"
   id="path95" />
				<path
   class="st1"
   d="M204.85,270.42c-0.24-0.8-0.76-1.32-1.56-1.56c-0.24-0.07-0.24-0.13,0-0.2c0.8-0.24,1.31-0.76,1.56-1.56      c0.07-0.24,0.13-0.24,0.2,0c0.24,0.8,0.76,1.31,1.56,1.56c0.24,0.07,0.24,0.13,0,0.2c-0.8,0.24-1.31,0.76-1.56,1.56      C204.98,270.66,204.92,270.66,204.85,270.42z"
   id="path97" />
				<path
   class="st1"
   d="M317.79,216.95c-0.24-0.8-0.76-1.31-1.56-1.56c-0.24-0.07-0.24-0.13,0-0.2c0.8-0.24,1.32-0.76,1.56-1.56      c0.07-0.24,0.13-0.24,0.2,0c0.24,0.8,0.76,1.32,1.56,1.56c0.24,0.07,0.24,0.13,0,0.2c-0.8,0.24-1.32,0.76-1.56,1.56      C317.92,217.18,317.86,217.18,317.79,216.95z"
   id="path99" />
				<path
   class="st1"
   d="M22.62,397.73c-1.08,0-1.08,1.67,0,1.67C23.7,399.4,23.7,397.73,22.62,397.73z"
   id="path101" />
				<path
   class="st1"
   d="M49.72,473.6c-1.08,0-1.08,1.67,0,1.67C50.8,475.27,50.8,473.6,49.72,473.6z"
   id="path103" />
				<path
   class="st1"
   d="M124.36,485.85c-1.08,0-1.08,1.67,0,1.67C125.44,487.52,125.44,485.85,124.36,485.85z"
   id="path105" />
				<path
   class="st1"
   d="M107.16,435.6c-0.47-1.55-1.48-2.56-3.03-3.03c-0.46-0.14-0.46-0.25,0-0.39c1.55-0.47,2.56-1.48,3.03-3.03      c0.14-0.46,0.25-0.46,0.39,0c0.47,1.55,1.48,2.56,3.03,3.03c0.46,0.14,0.46,0.25,0,0.39c-1.55,0.47-2.56,1.48-3.03,3.03      C107.41,436.07,107.3,436.07,107.16,435.6z"
   id="path107" />
				<path
   class="st1"
   d="M11.98,371.82c-0.31-1.03-0.99-1.7-2.02-2.02c-0.31-0.09-0.31-0.17,0-0.26c1.03-0.31,1.7-0.99,2.02-2.02      c0.09-0.31,0.17-0.31,0.26,0c0.31,1.03,0.99,1.7,2.02,2.02c0.31,0.09,0.31,0.17,0,0.26c-1.03,0.31-1.7,0.99-2.02,2.02      C12.15,372.13,12.07,372.13,11.98,371.82z"
   id="path109" />
				<path
   class="st1"
   d="M55.57,370.16c-0.24-0.8-0.76-1.32-1.56-1.56c-0.24-0.07-0.24-0.13,0-0.2c0.8-0.24,1.32-0.76,1.56-1.56      c0.07-0.24,0.13-0.24,0.2,0c0.24,0.8,0.76,1.32,1.56,1.56c0.24,0.07,0.24,0.13,0,0.2c-0.8,0.24-1.32,0.76-1.56,1.56      C55.7,370.4,55.64,370.4,55.57,370.16z"
   id="path111" />
				<path
   class="st1"
   d="M207.51,475.25c-0.24-0.8-0.76-1.32-1.56-1.56c-0.24-0.07-0.24-0.13,0-0.2c0.8-0.24,1.32-0.76,1.56-1.56      c0.07-0.24,0.13-0.24,0.2,0c0.24,0.8,0.76,1.32,1.56,1.56c0.24,0.07,0.24,0.13,0,0.2c-0.8,0.24-1.32,0.76-1.56,1.56      C207.64,475.49,207.58,475.49,207.51,475.25z"
   id="path113" />
				<path
   class="st1"
   d="M40.73,434.03c-0.24-0.8-0.76-1.31-1.56-1.56c-0.24-0.07-0.24-0.13,0-0.2c0.8-0.24,1.31-0.76,1.56-1.56      c0.07-0.24,0.13-0.24,0.2,0c0.24,0.8,0.76,1.31,1.56,1.56c0.24,0.07,0.24,0.13,0,0.2c-0.8,0.24-1.31,0.76-1.56,1.56      C40.86,434.27,40.8,434.27,40.73,434.03z"
   id="path115" />
				<path
   class="st1"
   d="M162.89,383.69c-0.24-0.8-0.76-1.32-1.56-1.56c-0.24-0.07-0.24-0.13,0-0.2c0.8-0.24,1.32-0.76,1.56-1.56      c0.07-0.24,0.13-0.24,0.2,0c0.24,0.8,0.76,1.32,1.56,1.56c0.24,0.07,0.24,0.13,0,0.2c-0.8,0.24-1.31,0.76-1.56,1.56      C163.02,383.93,162.96,383.93,162.89,383.69z"
   id="path117" />
				<path
   class="st1"
   d="M21.54,300.49c-0.24-0.8-0.76-1.32-1.56-1.56c-0.24-0.07-0.24-0.13,0-0.2c0.8-0.24,1.32-0.76,1.56-1.56      c0.07-0.24,0.13-0.24,0.2,0c0.24,0.8,0.76,1.32,1.56,1.56c0.24,0.07,0.24,0.13,0,0.2c-0.8,0.24-1.31,0.76-1.56,1.56      C21.67,300.73,21.61,300.73,21.54,300.49z"
   id="path119" />
				<path
   class="st1"
   d="M361.01,66.21c-0.24-0.8-0.76-1.31-1.56-1.56c-0.24-0.07-0.24-0.13,0-0.2c0.8-0.24,1.31-0.76,1.56-1.56      c0.07-0.24,0.13-0.24,0.2,0c0.24,0.8,0.76,1.31,1.56,1.56c0.24,0.07,0.24,0.13,0,0.2c-0.8,0.24-1.32,0.76-1.56,1.56      C361.14,66.44,361.08,66.44,361.01,66.21z"
   id="path121" />
				<path
   class="st1"
   d="M186.19,114.73c-0.24-0.8-0.76-1.32-1.56-1.56c-0.24-0.07-0.24-0.13,0-0.2c0.8-0.24,1.32-0.76,1.56-1.56      c0.07-0.24,0.13-0.24,0.2,0c0.24,0.8,0.76,1.31,1.56,1.56c0.24,0.07,0.24,0.13,0,0.2c-0.8,0.24-1.32,0.76-1.56,1.56      C186.32,114.97,186.26,114.97,186.19,114.73z"
   id="path123" />
				<path
   class="st1"
   d="M282.56,36.52c-0.24-0.8-0.76-1.31-1.56-1.56c-0.24-0.07-0.24-0.13,0-0.2c0.8-0.24,1.32-0.76,1.56-1.56      c0.07-0.24,0.13-0.24,0.2,0c0.24,0.8,0.76,1.31,1.56,1.56c0.24,0.07,0.24,0.13,0,0.2c-0.8,0.24-1.31,0.76-1.56,1.56      C282.69,36.76,282.63,36.76,282.56,36.52z"
   id="path125" />
				<path
   class="st1"
   d="M156.82,87.49c-0.24-0.8-0.76-1.32-1.56-1.56c-0.24-0.07-0.24-0.13,0-0.2c0.8-0.24,1.31-0.76,1.56-1.56      c0.07-0.24,0.13-0.24,0.2,0c0.24,0.8,0.76,1.31,1.56,1.56c0.24,0.07,0.24,0.13,0,0.2c-0.8,0.24-1.31,0.76-1.56,1.56      C156.95,87.73,156.89,87.73,156.82,87.49z"
   id="path127" />
				<path
   class="st1"
   d="M463.15,437.6c-1.08,0-1.08,1.67,0,1.67C464.23,439.27,464.23,437.6,463.15,437.6z"
   id="path129" />
				<path
   class="st1"
   d="M262.84,472.76c-1.08,0-1.08,1.67,0,1.67C263.92,474.43,263.92,472.76,262.84,472.76z"
   id="path131" />
				<path
   class="st1"
   d="M276.96,444.49c-1.08,0-1.08,1.67,0,1.67C278.04,446.16,278.04,444.49,276.96,444.49z"
   id="path133" />
				<path
   class="st1"
   d="M406.82,445.33c-1.08,0-1.08,1.67,0,1.67C407.9,447,407.9,445.33,406.82,445.33z"
   id="path135" />
				<path
   class="st1"
   d="M486.16,456.79c-1.08,0-1.08,1.67,0,1.67C487.23,458.46,487.24,456.79,486.16,456.79z"
   id="path137" />
				<path
   class="st1"
   d="M321.68,466.24c-0.47-1.55-1.48-2.56-3.03-3.03c-0.46-0.14-0.46-0.25,0-0.39c1.55-0.47,2.56-1.48,3.03-3.03      c0.14-0.46,0.25-0.46,0.39,0c0.47,1.55,1.48,2.56,3.03,3.03c0.46,0.14,0.46,0.25,0,0.39c-1.55,0.47-2.56,1.48-3.03,3.03      C321.93,466.7,321.81,466.7,321.68,466.24z"
   id="path139" />
				<path
   class="st1"
   d="M300.98,426.75c-0.47-1.55-1.48-2.56-3.03-3.03c-0.46-0.14-0.46-0.25,0-0.39c1.55-0.47,2.56-1.48,3.03-3.03      c0.14-0.46,0.25-0.46,0.39,0c0.47,1.55,1.48,2.56,3.03,3.03c0.46,0.14,0.46,0.25,0,0.39c-1.55,0.47-2.56,1.48-3.03,3.03      C301.24,427.22,301.12,427.22,300.98,426.75z"
   id="path141" />
				<path
   class="st1"
   d="M371.04,438.76c-0.47-1.55-1.48-2.56-3.03-3.03c-0.46-0.14-0.46-0.25,0-0.39c1.55-0.47,2.56-1.48,3.03-3.03      c0.14-0.46,0.25-0.46,0.39,0c0.47,1.55,1.48,2.56,3.03,3.03c0.46,0.14,0.46,0.25,0,0.39c-1.55,0.47-2.56,1.48-3.03,3.03      C371.29,439.22,371.17,439.22,371.04,438.76z"
   id="path143" />
				<path
   class="st1"
   d="M437.47,483.78c-0.24-0.8-0.76-1.32-1.56-1.56c-0.24-0.07-0.24-0.13,0-0.2c0.8-0.24,1.32-0.76,1.56-1.56      c0.07-0.24,0.13-0.24,0.2,0c0.24,0.8,0.76,1.31,1.56,1.56c0.24,0.07,0.24,0.13,0,0.2c-0.8,0.24-1.32,0.76-1.56,1.56      C437.6,484.01,437.54,484.01,437.47,483.78z"
   id="path145" />
				<path
   class="st1"
   d="M472.16,395.16c-0.24-0.8-0.76-1.31-1.56-1.56c-0.24-0.07-0.24-0.13,0-0.2c0.8-0.24,1.32-0.76,1.56-1.56      c0.07-0.24,0.13-0.24,0.2,0c0.24,0.8,0.76,1.32,1.56,1.56c0.24,0.07,0.24,0.13,0,0.2c-0.8,0.24-1.31,0.76-1.56,1.56      C472.29,395.39,472.23,395.39,472.16,395.16z"
   id="path147" />
				<path
   class="st1"
   d="M398.75,493.37c-0.24-0.8-0.76-1.32-1.56-1.56c-0.24-0.07-0.24-0.13,0-0.2c0.8-0.24,1.32-0.76,1.56-1.56      c0.07-0.24,0.13-0.24,0.2,0c0.24,0.8,0.76,1.31,1.56,1.56c0.24,0.07,0.24,0.13,0,0.2c-0.8,0.24-1.31,0.76-1.56,1.56      C398.88,493.61,398.82,493.61,398.75,493.37z"
   id="path149" />
				<path
   class="st1"
   d="M466.52,198.65c-1.08,0-1.08,1.67,0,1.67C467.6,200.33,467.6,198.65,466.52,198.65z"
   id="path151" />
				<path
   class="st1"
   d="M450.98,265.48c-1.08,0-1.08,1.67,0,1.67C452.06,267.15,452.06,265.48,450.98,265.48z"
   id="path153" />
				<path
   class="st1"
   d="M487.75,15.98c-1.08,0-1.08,1.67,0,1.67C488.83,17.65,488.83,15.98,487.75,15.98z"
   id="path155" />
				<path
   class="st1"
   d="M443.29,24.54c-1.08,0-1.08,1.67,0,1.67C444.36,26.21,444.36,24.54,443.29,24.54z"
   id="path157" />
				<path
   class="st1"
   d="M487.75,120.44c-1.08,0-1.08,1.67,0,1.67C488.83,122.11,488.83,120.44,487.75,120.44z"
   id="path159" />
				<path
   class="st1"
   d="M455.88,172.75c-0.31-1.03-0.99-1.7-2.02-2.02c-0.31-0.09-0.31-0.17,0-0.26c1.03-0.31,1.7-0.99,2.02-2.02      c0.09-0.31,0.17-0.31,0.26,0c0.31,1.03,0.99,1.7,2.02,2.02c0.31,0.09,0.31,0.17,0,0.26c-1.03,0.31-1.7,0.99-2.02,2.02      C456.05,173.06,455.98,173.06,455.88,172.75z"
   id="path161" />
				<path
   class="st1"
   d="M488.2,253.84c-0.24-0.8-0.76-1.32-1.56-1.56c-0.24-0.07-0.24-0.13,0-0.2c0.8-0.24,1.32-0.76,1.56-1.56      c0.07-0.24,0.13-0.24,0.2,0c0.24,0.8,0.76,1.32,1.56,1.56c0.24,0.07,0.24,0.13,0,0.2c-0.8,0.24-1.32,0.76-1.56,1.56      C488.33,254.08,488.27,254.08,488.2,253.84z"
   id="path163" />
				<path
   class="st1"
   d="M464.59,99.82c-0.24-0.8-0.76-1.31-1.56-1.56c-0.24-0.07-0.24-0.13,0-0.2c0.8-0.24,1.32-0.76,1.56-1.56      c0.07-0.24,0.13-0.24,0.2,0c0.24,0.8,0.76,1.31,1.56,1.56c0.24,0.07,0.24,0.13,0,0.2c-0.8,0.24-1.32,0.76-1.56,1.56      C464.72,100.06,464.66,100.06,464.59,99.82z"
   id="path165" />
				<path
   class="st1"
   d="M435.21,72.58c-0.24-0.8-0.76-1.31-1.56-1.56c-0.24-0.07-0.24-0.13,0-0.2c0.8-0.24,1.31-0.76,1.56-1.56      c0.07-0.24,0.13-0.24,0.2,0c0.24,0.8,0.76,1.32,1.56,1.56c0.24,0.07,0.24,0.13,0,0.2c-0.8,0.24-1.31,0.76-1.56,1.56      C435.35,72.82,435.29,72.82,435.21,72.58z"
   id="path167" />
				<path
   class="st1"
   d="M364.1,112.79c-0.24-0.8-0.76-1.31-1.56-1.56c-0.24-0.07-0.24-0.13,0-0.2c0.8-0.24,1.31-0.76,1.56-1.56      c0.07-0.24,0.13-0.24,0.2,0c0.24,0.8,0.76,1.31,1.56,1.56c0.24,0.07,0.24,0.13,0,0.2c-0.8,0.24-1.31,0.76-1.56,1.56      C364.23,113.03,364.17,113.03,364.1,112.79z"
   id="path169" />
				<path
   class="st1"
   d="M411.99,323.52c-0.24-0.8-0.76-1.31-1.56-1.56c-0.24-0.07-0.24-0.13,0-0.2c0.8-0.24,1.32-0.76,1.56-1.56      c0.07-0.24,0.13-0.24,0.2,0c0.24,0.8,0.76,1.31,1.56,1.56c0.24,0.07,0.24,0.13,0,0.2c-0.8,0.24-1.32,0.76-1.56,1.56      C412.12,323.76,412.06,323.76,411.99,323.52z"
   id="path171" />
				<path
   class="st1"
   d="M84.26,151.22c-0.24-0.8-0.76-1.31-1.56-1.56c-0.24-0.07-0.24-0.13,0-0.2c0.8-0.24,1.31-0.76,1.56-1.56      c0.07-0.24,0.13-0.24,0.2,0c0.24,0.8,0.76,1.31,1.56,1.56c0.24,0.07,0.24,0.13,0,0.2c-0.8,0.24-1.31,0.76-1.56,1.56      C84.39,151.46,84.33,151.46,84.26,151.22z"
   id="path173" />
			</g>
		</g>
	</g>
</g>

<g
   id="DESIGNED_BY_FREEPIK">
</g>
</svg>