<?xml version="1.0" encoding="UTF-8" standalone="no"?>
<!-- Generator: Adobe Illustrator 23.0.0, SVG Export Plug-In . SVG Version: 6.00 Build 0)  -->

<svg
   xmlns:dc="http://purl.org/dc/elements/1.1/"
   xmlns:cc="http://creativecommons.org/ns#"
   xmlns:rdf="http://www.w3.org/1999/02/22-rdf-syntax-ns#"
   xmlns:svg="http://www.w3.org/2000/svg"
   xmlns="http://www.w3.org/2000/svg"
   xmlns:sodipodi="http://sodipodi.sourceforge.net/DTD/sodipodi-0.dtd"
   xmlns:inkscape="http://www.inkscape.org/namespaces/inkscape"
   version="1.1"
   width="500"
   height="500"
   viewBox="0 0 500 500"
   xml:space="preserve"
   id="svg194"
   sodipodi:docname="background.svg"
   inkscape:version="0.92.3 (2405546, 2018-03-11)"><metadata
   id="metadata200"><rdf:RDF><cc:Work
       rdf:about=""><dc:format>image/svg+xml</dc:format><dc:type
         rdf:resource="http://purl.org/dc/dcmitype/StillImage" /><dc:title></dc:title></cc:Work></rdf:RDF></metadata><defs
   id="defs198" /><sodipodi:namedview
   pagecolor="#ffffff"
   bordercolor="#666666"
   borderopacity="1"
   objecttolerance="10"
   gridtolerance="10"
   guidetolerance="10"
   inkscape:pageopacity="0"
   inkscape:pageshadow="2"
   inkscape:window-width="1920"
   inkscape:window-height="1024"
   id="namedview196"
   showgrid="false"
   inkscape:zoom="1.888"
   inkscape:cx="156.0308"
   inkscape:cy="241.7439"
   inkscape:window-x="0"
   inkscape:window-y="0"
   inkscape:window-maximized="1"
   inkscape:current-layer="svg194"
   fit-margin-top="0"
   fit-margin-left="0"
   fit-margin-right="0"
   fit-margin-bottom="0" />
<style
   type="text/css"
   id="style2">
	.st0{fill:url(#SVGID_1_);}
	.st1{fill:#FFFFFF;}
	.st2{opacity:0.2;fill:#FFA700;}
	.st3{fill:#FCB618;}
</style>
<g
   id="BACKGROUND">
	<g
   id="g179">
		<g
   id="g177">
			<linearGradient
   id="SVGID_1_"
   gradientUnits="userSpaceOnUse"
   x1="0"
   y1="500"
   x2="500"
   y2="4.5474741e-13">
				<stop
   offset="0.0104"
   style="stop-color:#170B42"
   id="stop4" />
				<stop
   offset="0.4549"
   style="stop-color:#0C2258"
   id="stop6" />
				<stop
   offset="0.9948"
   style="stop-color:#00396E"
   id="stop8" />
			</linearGradient>
			<rect
   class="st0"
   width="500"
   height="500"
   id="rect11"
   x="0"
   y="0"
   style="fill:url(#SVGID_1_)" />
			<g
   id="g175">
				<path
   class="st1"
   d="m 322.33,109.46 c -1.08,0 -1.08,1.67 0,1.67 1.07,0 1.07,-1.67 0,-1.67 z"
   id="path13"
   inkscape:connector-curvature="0"
   style="fill:#ffffff" />
				<path
   class="st1"
   d="m 137.96,122.83 c -1.08,0 -1.08,1.67 0,1.67 1.08,0 1.08,-1.67 0,-1.67 z"
   id="path15"
   inkscape:connector-curvature="0"
   style="fill:#ffffff" />
				<path
   class="st1"
   d="m 49.4,215.29 c -1.08,0 -1.08,1.67 0,1.67 1.07,0 1.08,-1.67 0,-1.67 z"
   id="path17"
   inkscape:connector-curvature="0"
   style="fill:#ffffff" />
				<path
   class="st1"
   d="m 127.94,297.17 c -1.08,0 -1.08,1.67 0,1.67 1.07,0 1.07,-1.67 0,-1.67 z"
   id="path19"
   inkscape:connector-curvature="0"
   style="fill:#ffffff" />
				<path
   class="st1"
   d="m 188.12,213.56 c -1.08,0 -1.08,1.67 0,1.67 1.08,0 1.08,-1.67 0,-1.67 z"
   id="path21"
   inkscape:connector-curvature="0"
   style="fill:#ffffff" />
				<path
   class="st1"
   d="m 172.58,280.39 c -1.08,0 -1.08,1.67 0,1.67 1.08,0 1.08,-1.67 0,-1.67 z"
   id="path23"
   inkscape:connector-curvature="0"
   style="fill:#ffffff" />
				<path
   class="st1"
   d="m 28.79,265.42 c -1.08,0 -1.08,1.67 0,1.67 1.08,0 1.08,-1.67 0,-1.67 z"
   id="path25"
   inkscape:connector-curvature="0"
   style="fill:#ffffff" />
				<path
   class="st1"
   d="m 241.6,400.97 c -1.08,0 -1.08,1.67 0,1.67 1.07,0 1.07,-1.67 0,-1.67 z"
   id="path27"
   inkscape:connector-curvature="0"
   style="fill:#ffffff" />
				<path
   class="st1"
   d="m 376.36,400.14 c -1.08,0 -1.08,1.67 0,1.67 1.07,0 1.07,-1.67 0,-1.67 z"
   id="path29"
   inkscape:connector-curvature="0"
   style="fill:#ffffff" />
				<path
   class="st1"
   d="m 221.22,31.72 c -1.08,0 -1.08,1.67 0,1.67 1.08,0 1.08,-1.67 0,-1.67 z"
   id="path31"
   inkscape:connector-curvature="0"
   style="fill:#ffffff" />
				<path
   class="st1"
   d="m 27.98,98.23 c -1.08,0 -1.08,1.67 0,1.67 1.08,0 1.08,-1.67 0,-1.67 z"
   id="path33"
   inkscape:connector-curvature="0"
   style="fill:#ffffff" />
				<path
   class="st1"
   d="m 35.03,38.61 c -1.08,0 -1.08,1.67 0,1.67 1.08,0 1.08,-1.67 0,-1.67 z"
   id="path35"
   inkscape:connector-curvature="0"
   style="fill:#ffffff" />
				<path
   class="st1"
   d="m 164.89,39.45 c -1.08,0 -1.08,1.67 0,1.67 1.07,0 1.08,-1.67 0,-1.67 z"
   id="path37"
   inkscape:connector-curvature="0"
   style="fill:#ffffff" />
				<path
   class="st1"
   d="m 327.59,45.52 c -1.08,0 -1.08,1.67 0,1.67 1.08,0.01 1.08,-1.67 0,-1.67 z"
   id="path39"
   inkscape:connector-curvature="0"
   style="fill:#ffffff" />
				<path
   class="st1"
   d="m 234.88,87.74 c -1.08,0 -1.08,1.67 0,1.67 1.07,0 1.08,-1.67 0,-1.67 z"
   id="path41"
   inkscape:connector-curvature="0"
   style="fill:#ffffff" />
				<path
   class="st1"
   d="m 304.3,176.28 c -1.08,0 -1.08,1.67 0,1.67 1.07,0 1.07,-1.67 0,-1.67 z"
   id="path43"
   inkscape:connector-curvature="0"
   style="fill:#ffffff" />
				<path
   class="st1"
   d="m 209.36,135.35 c -1.08,0 -1.08,1.67 0,1.67 1.07,0 1.07,-1.67 0,-1.67 z"
   id="path45"
   inkscape:connector-curvature="0"
   style="fill:#ffffff" />
				<path
   class="st1"
   d="m 91.5,192.76 c -1.08,0 -1.08,1.67 0,1.67 1.08,0 1.08,-1.67 0,-1.67 z"
   id="path47"
   inkscape:connector-curvature="0"
   style="fill:#ffffff" />
				<path
   class="st1"
   d="m 326.78,256.51 c -1.08,0 -1.08,1.67 0,1.67 1.08,0 1.08,-1.67 0,-1.67 z"
   id="path49"
   inkscape:connector-curvature="0"
   style="fill:#ffffff" />
				<path
   class="st1"
   d="m 287.24,286.03 c -1.08,0 -1.08,1.67 0,1.67 1.07,0 1.07,-1.67 0,-1.67 z"
   id="path51"
   inkscape:connector-curvature="0"
   style="fill:#ffffff" />
				<path
   class="st1"
   d="m 279.07,363.83 c -1.08,0 -1.08,1.67 0,1.67 1.07,0 1.08,-1.67 0,-1.67 z"
   id="path53"
   inkscape:connector-curvature="0"
   style="fill:#ffffff" />
				<path
   class="st1"
   d="m 327.59,342.6 c -1.08,0 -1.08,1.67 0,1.67 1.08,0 1.08,-1.67 0,-1.67 z"
   id="path55"
   inkscape:connector-curvature="0"
   style="fill:#ffffff" />
				<path
   class="st1"
   d="m 401.42,268.76 c -1.08,0 -1.08,1.67 0,1.67 1.08,0 1.08,-1.67 0,-1.67 z"
   id="path57"
   inkscape:connector-curvature="0"
   style="fill:#ffffff" />
				<path
   class="st1"
   d="m 376.36,147.89 c -1.08,0 -1.08,1.67 0,1.67 1.07,0 1.07,-1.67 0,-1.67 z"
   id="path59"
   inkscape:connector-curvature="0"
   style="fill:#ffffff" />
				<path
   class="st1"
   d="m 403.65,81.61 c -1.08,0 -1.08,1.67 0,1.67 1.07,0 1.08,-1.67 0,-1.67 z"
   id="path61"
   inkscape:connector-curvature="0"
   style="fill:#ffffff" />
				<path
   class="st1"
   d="m 41.6,161.26 c -1.08,0 -1.08,1.67 0,1.67 1.08,0 1.08,-1.67 0,-1.67 z"
   id="path63"
   inkscape:connector-curvature="0"
   style="fill:#ffffff" />
				<path
   class="st1"
   d="m 128.49,345.07 c -1.08,0 -1.08,1.67 0,1.67 1.08,0 1.08,-1.67 0,-1.67 z"
   id="path65"
   inkscape:connector-curvature="0"
   style="fill:#ffffff" />
				<path
   class="st1"
   d="m 79.74,60.36 c -0.47,-1.55 -1.48,-2.56 -3.03,-3.03 -0.46,-0.14 -0.46,-0.25 0,-0.39 1.55,-0.47 2.56,-1.48 3.03,-3.03 0.14,-0.46 0.25,-0.46 0.39,0 0.47,1.55 1.48,2.56 3.03,3.03 0.46,0.14 0.46,0.25 0,0.39 -1.55,0.47 -2.56,1.48 -3.03,3.03 -0.13,0.46 -0.25,0.46 -0.39,0 z"
   id="path67"
   inkscape:connector-curvature="0"
   style="fill:#ffffff" />
				<path
   class="st1"
   d="m 458.2,326.93 c -0.47,-1.55 -1.48,-2.56 -3.03,-3.03 -0.46,-0.14 -0.46,-0.25 0,-0.39 1.55,-0.47 2.56,-1.48 3.03,-3.03 0.14,-0.46 0.25,-0.46 0.39,0 0.47,1.55 1.48,2.56 3.03,3.03 0.46,0.14 0.46,0.25 0,0.39 -1.55,0.47 -2.56,1.48 -3.03,3.03 -0.14,0.46 -0.25,0.46 -0.39,0 z"
   id="path69"
   inkscape:connector-curvature="0"
   style="fill:#ffffff" />
				<path
   class="st1"
   d="m 23.28,195.99 c -0.47,-1.55 -1.48,-2.56 -3.03,-3.03 -0.46,-0.14 -0.46,-0.25 0,-0.39 1.55,-0.47 2.56,-1.48 3.03,-3.03 0.14,-0.46 0.25,-0.46 0.39,0 0.47,1.55 1.48,2.56 3.03,3.03 0.46,0.14 0.46,0.25 0,0.39 -1.55,0.47 -2.56,1.48 -3.03,3.03 -0.13,0.46 -0.25,0.46 -0.39,0 z"
   id="path71"
   inkscape:connector-curvature="0"
   style="fill:#ffffff" />
				<path
   class="st1"
   d="m 199.83,385.26 c -0.47,-1.55 -1.48,-2.56 -3.03,-3.03 -0.46,-0.14 -0.46,-0.25 0,-0.39 1.55,-0.47 2.56,-1.48 3.03,-3.03 0.14,-0.46 0.25,-0.46 0.39,0 0.47,1.55 1.48,2.56 3.03,3.03 0.46,0.14 0.46,0.25 0,0.39 -1.55,0.47 -2.56,1.48 -3.03,3.03 -0.13,0.46 -0.25,0.46 -0.39,0 z"
   id="path73"
   inkscape:connector-curvature="0"
   style="fill:#ffffff" />
				<path
   class="st1"
   d="m 371.53,29.31 c -0.47,-1.55 -1.48,-2.56 -3.03,-3.03 -0.46,-0.14 -0.46,-0.25 0,-0.39 1.55,-0.47 2.56,-1.48 3.03,-3.03 0.14,-0.46 0.25,-0.46 0.39,0 0.47,1.55 1.48,2.56 3.03,3.03 0.46,0.14 0.46,0.25 0,0.39 -1.55,0.47 -2.56,1.48 -3.03,3.03 -0.14,0.46 -0.25,0.46 -0.39,0 z"
   id="path75"
   inkscape:connector-curvature="0"
   style="fill:#ffffff" />
				<path
   class="st1"
   d="m 458.2,56.78 c -0.47,-1.55 -1.48,-2.56 -3.03,-3.03 -0.46,-0.14 -0.46,-0.25 0,-0.39 1.55,-0.47 2.56,-1.48 3.03,-3.03 0.14,-0.46 0.25,-0.46 0.39,0 0.47,1.55 1.48,2.56 3.03,3.03 0.46,0.14 0.46,0.25 0,0.39 -1.55,0.47 -2.56,1.48 -3.03,3.03 -0.14,0.47 -0.25,0.47 -0.39,0 z"
   id="path77"
   inkscape:connector-curvature="0"
   style="fill:#ffffff" />
				<path
   class="st1"
   d="m 59.05,20.87 c -0.47,-1.55 -1.48,-2.56 -3.03,-3.03 -0.46,-0.14 -0.46,-0.25 0,-0.39 1.55,-0.47 2.56,-1.48 3.03,-3.03 0.14,-0.46 0.25,-0.46 0.39,0 0.47,1.55 1.48,2.56 3.03,3.03 0.46,0.14 0.46,0.25 0,0.39 -1.55,0.47 -2.56,1.48 -3.03,3.03 -0.14,0.47 -0.25,0.47 -0.39,0 z"
   id="path79"
   inkscape:connector-curvature="0"
   style="fill:#ffffff" />
				<path
   class="st1"
   d="m 384.22,218.51 c -0.47,-1.55 -1.48,-2.56 -3.03,-3.03 -0.46,-0.14 -0.46,-0.25 0,-0.39 1.55,-0.47 2.56,-1.48 3.03,-3.03 0.14,-0.46 0.25,-0.46 0.39,0 0.47,1.55 1.48,2.56 3.03,3.03 0.46,0.14 0.46,0.25 0,0.39 -1.55,0.47 -2.56,1.48 -3.03,3.03 -0.14,0.47 -0.25,0.47 -0.39,0 z"
   id="path81"
   inkscape:connector-curvature="0"
   style="fill:#ffffff" />
				<path
   class="st1"
   d="m 300.13,142.99 c -0.47,-1.55 -1.48,-2.56 -3.03,-3.03 -0.46,-0.14 -0.46,-0.25 0,-0.39 1.55,-0.47 2.56,-1.48 3.03,-3.03 0.14,-0.46 0.25,-0.46 0.39,0 0.47,1.55 1.48,2.56 3.03,3.03 0.46,0.14 0.46,0.25 0,0.39 -1.55,0.47 -2.56,1.48 -3.03,3.03 -0.13,0.46 -0.25,0.46 -0.39,0 z"
   id="path83"
   inkscape:connector-curvature="0"
   style="fill:#ffffff" />
				<path
   class="st1"
   d="m 129.1,32.88 c -0.47,-1.55 -1.48,-2.56 -3.03,-3.03 -0.46,-0.14 -0.46,-0.25 0,-0.39 1.55,-0.47 2.56,-1.48 3.03,-3.03 0.14,-0.46 0.25,-0.46 0.39,0 0.47,1.55 1.48,2.56 3.03,3.03 0.46,0.14 0.46,0.25 0,0.39 -1.55,0.47 -2.56,1.48 -3.03,3.03 -0.13,0.46 -0.25,0.46 -0.39,0 z"
   id="path85"
   inkscape:connector-curvature="0"
   style="fill:#ffffff" />
				<path
   class="st1"
   d="m 266.49,338.18 c -0.47,-1.55 -1.48,-2.56 -3.03,-3.03 -0.46,-0.14 -0.46,-0.25 0,-0.39 1.55,-0.47 2.56,-1.48 3.03,-3.03 0.14,-0.46 0.25,-0.46 0.39,0 0.47,1.55 1.48,2.56 3.03,3.03 0.46,0.14 0.46,0.25 0,0.39 -1.55,0.47 -2.56,1.48 -3.03,3.03 -0.14,0.47 -0.25,0.47 -0.39,0 z"
   id="path87"
   inkscape:connector-curvature="0"
   style="fill:#ffffff" />
				<path
   class="st1"
   d="m 177.49,187.66 c -0.31,-1.03 -0.99,-1.7 -2.02,-2.02 -0.31,-0.09 -0.31,-0.17 0,-0.26 1.03,-0.31 1.7,-0.99 2.02,-2.02 0.09,-0.31 0.17,-0.31 0.26,0 0.31,1.03 0.99,1.7 2.02,2.02 0.31,0.09 0.31,0.17 0,0.26 -1.03,0.31 -1.7,0.99 -2.02,2.02 -0.1,0.31 -0.17,0.31 -0.26,0 z"
   id="path89"
   inkscape:connector-curvature="0"
   style="fill:#ffffff" />
				<path
   class="st1"
   d="m 331.37,402.29 c -0.31,-1.03 -0.99,-1.7 -2.02,-2.02 -0.31,-0.09 -0.31,-0.17 0,-0.26 1.03,-0.31 1.7,-0.99 2.02,-2.02 0.09,-0.31 0.17,-0.31 0.26,0 0.31,1.03 0.99,1.7 2.02,2.02 0.31,0.09 0.31,0.17 0,0.26 -1.03,0.31 -1.7,0.99 -2.02,2.02 -0.09,0.3 -0.17,0.3 -0.26,0 z"
   id="path91"
   inkscape:connector-curvature="0"
   style="fill:#ffffff" />
				<path
   class="st1"
   d="m 74.35,292.35 c -0.24,-0.8 -0.76,-1.31 -1.56,-1.56 -0.24,-0.07 -0.24,-0.13 0,-0.2 0.8,-0.24 1.31,-0.76 1.56,-1.56 0.07,-0.24 0.13,-0.24 0.2,0 0.24,0.8 0.76,1.32 1.56,1.56 0.24,0.07 0.24,0.13 0,0.2 -0.8,0.24 -1.31,0.76 -1.56,1.56 -0.07,0.24 -0.13,0.24 -0.2,0 z"
   id="path93"
   inkscape:connector-curvature="0"
   style="fill:#ffffff" />
				<path
   class="st1"
   d="m 98.56,249.42 c -0.24,-0.8 -0.76,-1.32 -1.56,-1.56 -0.24,-0.07 -0.24,-0.13 0,-0.2 0.8,-0.24 1.32,-0.76 1.56,-1.56 0.07,-0.24 0.13,-0.24 0.2,0 0.24,0.8 0.76,1.32 1.56,1.56 0.24,0.07 0.24,0.13 0,0.2 -0.8,0.24 -1.32,0.76 -1.56,1.56 -0.07,0.24 -0.13,0.24 -0.2,0 z"
   id="path95"
   inkscape:connector-curvature="0"
   style="fill:#ffffff" />
				<path
   class="st1"
   d="m 204.85,270.42 c -0.24,-0.8 -0.76,-1.32 -1.56,-1.56 -0.24,-0.07 -0.24,-0.13 0,-0.2 0.8,-0.24 1.31,-0.76 1.56,-1.56 0.07,-0.24 0.13,-0.24 0.2,0 0.24,0.8 0.76,1.31 1.56,1.56 0.24,0.07 0.24,0.13 0,0.2 -0.8,0.24 -1.31,0.76 -1.56,1.56 -0.07,0.24 -0.13,0.24 -0.2,0 z"
   id="path97"
   inkscape:connector-curvature="0"
   style="fill:#ffffff" />
				<path
   class="st1"
   d="m 317.79,216.95 c -0.24,-0.8 -0.76,-1.31 -1.56,-1.56 -0.24,-0.07 -0.24,-0.13 0,-0.2 0.8,-0.24 1.32,-0.76 1.56,-1.56 0.07,-0.24 0.13,-0.24 0.2,0 0.24,0.8 0.76,1.32 1.56,1.56 0.24,0.07 0.24,0.13 0,0.2 -0.8,0.24 -1.32,0.76 -1.56,1.56 -0.07,0.23 -0.13,0.23 -0.2,0 z"
   id="path99"
   inkscape:connector-curvature="0"
   style="fill:#ffffff" />
				<path
   class="st1"
   d="m 22.62,397.73 c -1.08,0 -1.08,1.67 0,1.67 1.08,0 1.08,-1.67 0,-1.67 z"
   id="path101"
   inkscape:connector-curvature="0"
   style="fill:#ffffff" />
				<path
   class="st1"
   d="m 49.72,473.6 c -1.08,0 -1.08,1.67 0,1.67 1.08,0 1.08,-1.67 0,-1.67 z"
   id="path103"
   inkscape:connector-curvature="0"
   style="fill:#ffffff" />
				<path
   class="st1"
   d="m 124.36,485.85 c -1.08,0 -1.08,1.67 0,1.67 1.08,0 1.08,-1.67 0,-1.67 z"
   id="path105"
   inkscape:connector-curvature="0"
   style="fill:#ffffff" />
				<path
   class="st1"
   d="m 107.16,435.6 c -0.47,-1.55 -1.48,-2.56 -3.03,-3.03 -0.46,-0.14 -0.46,-0.25 0,-0.39 1.55,-0.47 2.56,-1.48 3.03,-3.03 0.14,-0.46 0.25,-0.46 0.39,0 0.47,1.55 1.48,2.56 3.03,3.03 0.46,0.14 0.46,0.25 0,0.39 -1.55,0.47 -2.56,1.48 -3.03,3.03 -0.14,0.47 -0.25,0.47 -0.39,0 z"
   id="path107"
   inkscape:connector-curvature="0"
   style="fill:#ffffff" />
				<path
   class="st1"
   d="m 11.98,371.82 c -0.31,-1.03 -0.99,-1.7 -2.02,-2.02 -0.31,-0.09 -0.31,-0.17 0,-0.26 1.03,-0.31 1.7,-0.99 2.02,-2.02 0.09,-0.31 0.17,-0.31 0.26,0 0.31,1.03 0.99,1.7 2.02,2.02 0.31,0.09 0.31,0.17 0,0.26 -1.03,0.31 -1.7,0.99 -2.02,2.02 -0.09,0.31 -0.17,0.31 -0.26,0 z"
   id="path109"
   inkscape:connector-curvature="0"
   style="fill:#ffffff" />
				<path
   class="st1"
   d="m 55.57,370.16 c -0.24,-0.8 -0.76,-1.32 -1.56,-1.56 -0.24,-0.07 -0.24,-0.13 0,-0.2 0.8,-0.24 1.32,-0.76 1.56,-1.56 0.07,-0.24 0.13,-0.24 0.2,0 0.24,0.8 0.76,1.32 1.56,1.56 0.24,0.07 0.24,0.13 0,0.2 -0.8,0.24 -1.32,0.76 -1.56,1.56 -0.07,0.24 -0.13,0.24 -0.2,0 z"
   id="path111"
   inkscape:connector-curvature="0"
   style="fill:#ffffff" />
				<path
   class="st1"
   d="m 207.51,475.25 c -0.24,-0.8 -0.76,-1.32 -1.56,-1.56 -0.24,-0.07 -0.24,-0.13 0,-0.2 0.8,-0.24 1.32,-0.76 1.56,-1.56 0.07,-0.24 0.13,-0.24 0.2,0 0.24,0.8 0.76,1.32 1.56,1.56 0.24,0.07 0.24,0.13 0,0.2 -0.8,0.24 -1.32,0.76 -1.56,1.56 -0.07,0.24 -0.13,0.24 -0.2,0 z"
   id="path113"
   inkscape:connector-curvature="0"
   style="fill:#ffffff" />
				<path
   class="st1"
   d="m 40.73,434.03 c -0.24,-0.8 -0.76,-1.31 -1.56,-1.56 -0.24,-0.07 -0.24,-0.13 0,-0.2 0.8,-0.24 1.31,-0.76 1.56,-1.56 0.07,-0.24 0.13,-0.24 0.2,0 0.24,0.8 0.76,1.31 1.56,1.56 0.24,0.07 0.24,0.13 0,0.2 -0.8,0.24 -1.31,0.76 -1.56,1.56 -0.07,0.24 -0.13,0.24 -0.2,0 z"
   id="path115"
   inkscape:connector-curvature="0"
   style="fill:#ffffff" />
				<path
   class="st1"
   d="m 162.89,383.69 c -0.24,-0.8 -0.76,-1.32 -1.56,-1.56 -0.24,-0.07 -0.24,-0.13 0,-0.2 0.8,-0.24 1.32,-0.76 1.56,-1.56 0.07,-0.24 0.13,-0.24 0.2,0 0.24,0.8 0.76,1.32 1.56,1.56 0.24,0.07 0.24,0.13 0,0.2 -0.8,0.24 -1.31,0.76 -1.56,1.56 -0.07,0.24 -0.13,0.24 -0.2,0 z"
   id="path117"
   inkscape:connector-curvature="0"
   style="fill:#ffffff" />
				<path
   class="st1"
   d="m 21.54,300.49 c -0.24,-0.8 -0.76,-1.32 -1.56,-1.56 -0.24,-0.07 -0.24,-0.13 0,-0.2 0.8,-0.24 1.32,-0.76 1.56,-1.56 0.07,-0.24 0.13,-0.24 0.2,0 0.24,0.8 0.76,1.32 1.56,1.56 0.24,0.07 0.24,0.13 0,0.2 -0.8,0.24 -1.31,0.76 -1.56,1.56 -0.07,0.24 -0.13,0.24 -0.2,0 z"
   id="path119"
   inkscape:connector-curvature="0"
   style="fill:#ffffff" />
				<path
   class="st1"
   d="m 361.01,66.21 c -0.24,-0.8 -0.76,-1.31 -1.56,-1.56 -0.24,-0.07 -0.24,-0.13 0,-0.2 0.8,-0.24 1.31,-0.76 1.56,-1.56 0.07,-0.24 0.13,-0.24 0.2,0 0.24,0.8 0.76,1.31 1.56,1.56 0.24,0.07 0.24,0.13 0,0.2 -0.8,0.24 -1.32,0.76 -1.56,1.56 -0.07,0.23 -0.13,0.23 -0.2,0 z"
   id="path121"
   inkscape:connector-curvature="0"
   style="fill:#ffffff" />
				<path
   class="st1"
   d="m 186.19,114.73 c -0.24,-0.8 -0.76,-1.32 -1.56,-1.56 -0.24,-0.07 -0.24,-0.13 0,-0.2 0.8,-0.24 1.32,-0.76 1.56,-1.56 0.07,-0.24 0.13,-0.24 0.2,0 0.24,0.8 0.76,1.31 1.56,1.56 0.24,0.07 0.24,0.13 0,0.2 -0.8,0.24 -1.32,0.76 -1.56,1.56 -0.07,0.24 -0.13,0.24 -0.2,0 z"
   id="path123"
   inkscape:connector-curvature="0"
   style="fill:#ffffff" />
				<path
   class="st1"
   d="m 282.56,36.52 c -0.24,-0.8 -0.76,-1.31 -1.56,-1.56 -0.24,-0.07 -0.24,-0.13 0,-0.2 0.8,-0.24 1.32,-0.76 1.56,-1.56 0.07,-0.24 0.13,-0.24 0.2,0 0.24,0.8 0.76,1.31 1.56,1.56 0.24,0.07 0.24,0.13 0,0.2 -0.8,0.24 -1.31,0.76 -1.56,1.56 -0.07,0.24 -0.13,0.24 -0.2,0 z"
   id="path125"
   inkscape:connector-curvature="0"
   style="fill:#ffffff" />
				<path
   class="st1"
   d="m 156.82,87.49 c -0.24,-0.8 -0.76,-1.32 -1.56,-1.56 -0.24,-0.07 -0.24,-0.13 0,-0.2 0.8,-0.24 1.31,-0.76 1.56,-1.56 0.07,-0.24 0.13,-0.24 0.2,0 0.24,0.8 0.76,1.31 1.56,1.56 0.24,0.07 0.24,0.13 0,0.2 -0.8,0.24 -1.31,0.76 -1.56,1.56 -0.07,0.24 -0.13,0.24 -0.2,0 z"
   id="path127"
   inkscape:connector-curvature="0"
   style="fill:#ffffff" />
				<path
   class="st1"
   d="m 463.15,437.6 c -1.08,0 -1.08,1.67 0,1.67 1.08,0 1.08,-1.67 0,-1.67 z"
   id="path129"
   inkscape:connector-curvature="0"
   style="fill:#ffffff" />
				<path
   class="st1"
   d="m 262.84,472.76 c -1.08,0 -1.08,1.67 0,1.67 1.08,0 1.08,-1.67 0,-1.67 z"
   id="path131"
   inkscape:connector-curvature="0"
   style="fill:#ffffff" />
				<path
   class="st1"
   d="m 276.96,444.49 c -1.08,0 -1.08,1.67 0,1.67 1.08,0 1.08,-1.67 0,-1.67 z"
   id="path133"
   inkscape:connector-curvature="0"
   style="fill:#ffffff" />
				<path
   class="st1"
   d="m 406.82,445.33 c -1.08,0 -1.08,1.67 0,1.67 1.08,0 1.08,-1.67 0,-1.67 z"
   id="path135"
   inkscape:connector-curvature="0"
   style="fill:#ffffff" />
				<path
   class="st1"
   d="m 486.16,456.79 c -1.08,0 -1.08,1.67 0,1.67 1.07,0 1.08,-1.67 0,-1.67 z"
   id="path137"
   inkscape:connector-curvature="0"
   style="fill:#ffffff" />
				<path
   class="st1"
   d="m 321.68,466.24 c -0.47,-1.55 -1.48,-2.56 -3.03,-3.03 -0.46,-0.14 -0.46,-0.25 0,-0.39 1.55,-0.47 2.56,-1.48 3.03,-3.03 0.14,-0.46 0.25,-0.46 0.39,0 0.47,1.55 1.48,2.56 3.03,3.03 0.46,0.14 0.46,0.25 0,0.39 -1.55,0.47 -2.56,1.48 -3.03,3.03 -0.14,0.46 -0.26,0.46 -0.39,0 z"
   id="path139"
   inkscape:connector-curvature="0"
   style="fill:#ffffff" />
				<path
   class="st1"
   d="m 300.98,426.75 c -0.47,-1.55 -1.48,-2.56 -3.03,-3.03 -0.46,-0.14 -0.46,-0.25 0,-0.39 1.55,-0.47 2.56,-1.48 3.03,-3.03 0.14,-0.46 0.25,-0.46 0.39,0 0.47,1.55 1.48,2.56 3.03,3.03 0.46,0.14 0.46,0.25 0,0.39 -1.55,0.47 -2.56,1.48 -3.03,3.03 -0.13,0.47 -0.25,0.47 -0.39,0 z"
   id="path141"
   inkscape:connector-curvature="0"
   style="fill:#ffffff" />
				<path
   class="st1"
   d="m 371.04,438.76 c -0.47,-1.55 -1.48,-2.56 -3.03,-3.03 -0.46,-0.14 -0.46,-0.25 0,-0.39 1.55,-0.47 2.56,-1.48 3.03,-3.03 0.14,-0.46 0.25,-0.46 0.39,0 0.47,1.55 1.48,2.56 3.03,3.03 0.46,0.14 0.46,0.25 0,0.39 -1.55,0.47 -2.56,1.48 -3.03,3.03 -0.14,0.46 -0.26,0.46 -0.39,0 z"
   id="path143"
   inkscape:connector-curvature="0"
   style="fill:#ffffff" />
				<path
   class="st1"
   d="m 437.47,483.78 c -0.24,-0.8 -0.76,-1.32 -1.56,-1.56 -0.24,-0.07 -0.24,-0.13 0,-0.2 0.8,-0.24 1.32,-0.76 1.56,-1.56 0.07,-0.24 0.13,-0.24 0.2,0 0.24,0.8 0.76,1.31 1.56,1.56 0.24,0.07 0.24,0.13 0,0.2 -0.8,0.24 -1.32,0.76 -1.56,1.56 -0.07,0.23 -0.13,0.23 -0.2,0 z"
   id="path145"
   inkscape:connector-curvature="0"
   style="fill:#ffffff" />
				<path
   class="st1"
   d="m 472.16,395.16 c -0.24,-0.8 -0.76,-1.31 -1.56,-1.56 -0.24,-0.07 -0.24,-0.13 0,-0.2 0.8,-0.24 1.32,-0.76 1.56,-1.56 0.07,-0.24 0.13,-0.24 0.2,0 0.24,0.8 0.76,1.32 1.56,1.56 0.24,0.07 0.24,0.13 0,0.2 -0.8,0.24 -1.31,0.76 -1.56,1.56 -0.07,0.23 -0.13,0.23 -0.2,0 z"
   id="path147"
   inkscape:connector-curvature="0"
   style="fill:#ffffff" />
				<path
   class="st1"
   d="m 398.75,493.37 c -0.24,-0.8 -0.76,-1.32 -1.56,-1.56 -0.24,-0.07 -0.24,-0.13 0,-0.2 0.8,-0.24 1.32,-0.76 1.56,-1.56 0.07,-0.24 0.13,-0.24 0.2,0 0.24,0.8 0.76,1.31 1.56,1.56 0.24,0.07 0.24,0.13 0,0.2 -0.8,0.24 -1.31,0.76 -1.56,1.56 -0.07,0.24 -0.13,0.24 -0.2,0 z"
   id="path149"
   inkscape:connector-curvature="0"
   style="fill:#ffffff" />
				<path
   class="st1"
   d="m 466.52,198.65 c -1.08,0 -1.08,1.67 0,1.67 1.08,0.01 1.08,-1.67 0,-1.67 z"
   id="path151"
   inkscape:connector-curvature="0"
   style="fill:#ffffff" />
				<path
   class="st1"
   d="m 450.98,265.48 c -1.08,0 -1.08,1.67 0,1.67 1.08,0 1.08,-1.67 0,-1.67 z"
   id="path153"
   inkscape:connector-curvature="0"
   style="fill:#ffffff" />
				<path
   class="st1"
   d="m 487.75,15.98 c -1.08,0 -1.08,1.67 0,1.67 1.08,0 1.08,-1.67 0,-1.67 z"
   id="path155"
   inkscape:connector-curvature="0"
   style="fill:#ffffff" />
				<path
   class="st1"
   d="m 443.29,24.54 c -1.08,0 -1.08,1.67 0,1.67 1.07,0 1.07,-1.67 0,-1.67 z"
   id="path157"
   inkscape:connector-curvature="0"
   style="fill:#ffffff" />
				<path
   class="st1"
   d="m 487.75,120.44 c -1.08,0 -1.08,1.67 0,1.67 1.08,0 1.08,-1.67 0,-1.67 z"
   id="path159"
   inkscape:connector-curvature="0"
   style="fill:#ffffff" />
				<path
   class="st1"
   d="m 455.88,172.75 c -0.31,-1.03 -0.99,-1.7 -2.02,-2.02 -0.31,-0.09 -0.31,-0.17 0,-0.26 1.03,-0.31 1.7,-0.99 2.02,-2.02 0.09,-0.31 0.17,-0.31 0.26,0 0.31,1.03 0.99,1.7 2.02,2.02 0.31,0.09 0.31,0.17 0,0.26 -1.03,0.31 -1.7,0.99 -2.02,2.02 -0.09,0.31 -0.16,0.31 -0.26,0 z"
   id="path161"
   inkscape:connector-curvature="0"
   style="fill:#ffffff" />
				<path
   class="st1"
   d="m 488.2,253.84 c -0.24,-0.8 -0.76,-1.32 -1.56,-1.56 -0.24,-0.07 -0.24,-0.13 0,-0.2 0.8,-0.24 1.32,-0.76 1.56,-1.56 0.07,-0.24 0.13,-0.24 0.2,0 0.24,0.8 0.76,1.32 1.56,1.56 0.24,0.07 0.24,0.13 0,0.2 -0.8,0.24 -1.32,0.76 -1.56,1.56 -0.07,0.24 -0.13,0.24 -0.2,0 z"
   id="path163"
   inkscape:connector-curvature="0"
   style="fill:#ffffff" />
				<path
   class="st1"
   d="m 464.59,99.82 c -0.24,-0.8 -0.76,-1.31 -1.56,-1.56 -0.24,-0.07 -0.24,-0.13 0,-0.2 0.8,-0.24 1.32,-0.76 1.56,-1.56 0.07,-0.24 0.13,-0.24 0.2,0 0.24,0.8 0.76,1.31 1.56,1.56 0.24,0.07 0.24,0.13 0,0.2 -0.8,0.24 -1.32,0.76 -1.56,1.56 -0.07,0.24 -0.13,0.24 -0.2,0 z"
   id="path165"
   inkscape:connector-curvature="0"
   style="fill:#ffffff" />
				<path
   class="st1"
   d="m 435.21,72.58 c -0.24,-0.8 -0.76,-1.31 -1.56,-1.56 -0.24,-0.07 -0.24,-0.13 0,-0.2 0.8,-0.24 1.31,-0.76 1.56,-1.56 0.07,-0.24 0.13,-0.24 0.2,0 0.24,0.8 0.76,1.32 1.56,1.56 0.24,0.07 0.24,0.13 0,0.2 -0.8,0.24 -1.31,0.76 -1.56,1.56 -0.06,0.24 -0.12,0.24 -0.2,0 z"
   id="path167"
   inkscape:connector-curvature="0"
   style="fill:#ffffff" />
				<path
   class="st1"
   d="m 364.1,112.79 c -0.24,-0.8 -0.76,-1.31 -1.56,-1.56 -0.24,-0.07 -0.24,-0.13 0,-0.2 0.8,-0.24 1.31,-0.76 1.56,-1.56 0.07,-0.24 0.13,-0.24 0.2,0 0.24,0.8 0.76,1.31 1.56,1.56 0.24,0.07 0.24,0.13 0,0.2 -0.8,0.24 -1.31,0.76 -1.56,1.56 -0.07,0.24 -0.13,0.24 -0.2,0 z"
   id="path169"
   inkscape:connector-curvature="0"
   style="fill:#ffffff" />
				<path
   class="st1"
   d="m 411.99,323.52 c -0.24,-0.8 -0.76,-1.31 -1.56,-1.56 -0.24,-0.07 -0.24,-0.13 0,-0.2 0.8,-0.24 1.32,-0.76 1.56,-1.56 0.07,-0.24 0.13,-0.24 0.2,0 0.24,0.8 0.76,1.31 1.56,1.56 0.24,0.07 0.24,0.13 0,0.2 -0.8,0.24 -1.32,0.76 -1.56,1.56 -0.07,0.24 -0.13,0.24 -0.2,0 z"
   id="path171"
   inkscape:connector-curvature="0"
   style="fill:#ffffff" />
				<path
   class="st1"
   d="m 84.26,151.22 c -0.24,-0.8 -0.76,-1.31 -1.56,-1.56 -0.24,-0.07 -0.24,-0.13 0,-0.2 0.8,-0.24 1.31,-0.76 1.56,-1.56 0.07,-0.24 0.13,-0.24 0.2,0 0.24,0.8 0.76,1.31 1.56,1.56 0.24,0.07 0.24,0.13 0,0.2 -0.8,0.24 -1.31,0.76 -1.56,1.56 -0.07,0.24 -0.13,0.24 -0.2,0 z"
   id="path173"
   inkscape:connector-curvature="0"
   style="fill:#ffffff" />
			</g>
		</g>
	</g>
</g>

<g
   id="DESIGNED_BY_FREEPIK">
</g>
</svg>