<?xml version="1.0" encoding="UTF-8"?>
<svg width="707.5" height="707.5" version="1.0" viewBox="0 0 707.5 707.5" xmlns="http://www.w3.org/2000/svg" xmlns:osb="http://www.openswatchbook.org/uri/2009/osb" xmlns:xlink="http://www.w3.org/1999/xlink">
 <defs>
  <linearGradient id="linearGradient3431" osb:paint="gradient">
   <stop stop-color="#fff9ff" offset="0"/>
   <stop stop-color="#27a000" offset="1"/>
  </linearGradient>
  <radialGradient id="radialGradient4719" cx="373.32" cy="393.86" r="351.63" gradientTransform="matrix(1 0 0 .94872 0 20.199)" gradientUnits="userSpaceOnUse" xlink:href="#linearGradient3431"/>
 </defs>
 <g transform="translate(-17.508 -23.7)">
  <ellipse cx="371.26" cy="377.45" rx="352.46" ry="352.58" fill="#64e6ff"/>
  <g fill="url(#radialGradient4719)" fill-rule="evenodd" stroke="#595a97" stroke-width="1px">
   <path d="m173.79 653.79c-12.448-9.0931 13.185-4.6643 9.3009-19.143 12.603-5.2402 33.128 3.2536 15.448 14.597-2.656 15.222-16.27 3.0644-24.749 4.5457z"/>
   <path d="m187.93 675c6.5168-2.5471 20.774-3.1835 6.1537-10.305 10.923-4.5932 28.443-6.2984 17.153-21.989-7.9838-13.408 10.92-35.953 20.836-23.287 1.7746 14.494-9.1106 32.638-0.20146 54.066 4.0956 24.113-26.683 5.2308-43.942 1.5152z"/>
   <path d="m222.78 696.21c17.916-0.89906 32.898-20.975 54.114-13.863-5.553-13.101 9.8264-38.401 15.587-25.533-22.733 21.195 14.316 43.14 31.046 27.493 20.645 21.464 16.539-39.577 36.713-17.001 1.5163-8.848-18.059-19.78 4.881-17.97 14.591 0.6507 34.388-8.9947 6.1322-7.6433-23.017 12.406-28.221-24.97-10.702-33.548 16.784-18.698-16.312-19.522-11.501-0.32369-26.571 11.447-9.0523 39.7-27.779 55.053-14.816 25.686-25.337 7.7946-20.708-14.142-0.85278-13.112-39.627 5.6609-26.264-21.718 2.9943-21.798 18.743-23.926 32.325-28.284 12.388-17.681 23.574-35.361 41.921-43.437 11.264-6.7827 31.524-14.844 45.564 3.2545 6.1443-0.12536 49.789 19.221 18.592 25.148-31.956-21.953-3.5027 35.771 3.608 16.441-13.409-8.1801 20.98 4.4024 6.1629-11.218 12.971-9.7284 16.126-17.464 7.3362-31.539 10.994-0.25408 11.472 26.109 18.237 3.4688 3.5385-20.697 38.704-18.026 22.223-35.86 16.843-3.5102 45.556-2.5252 14.142-15.657-14.78-15.859-1.6143-34.518 12.122-12.122 19.235 0.80071 24.246 55.516 27.277 18.021-15.378-12.705-7.1378-11.613 4.3824-13.693-13.387-0.87093-39.36-5.7937-39.236-21.5 23.887 17.247-9.8526-13.742 17.173-8.5863 25.128-1.8386-15.859-5.852-12.456-6.4136 13.478-18.819-17.967-32.665-5.2219-52.68-19.552-16.314 15.743-43.257 26.769-14.142 22.04 15.165-13.57-20.176 8.7559-29.056 0.72641-8.2067-21.839-29.946 2.3558-25.493 22.056-4.1773-4.6735-18.857-4.5457-31.82-28.335 7.5819-0.1717-38.81-20.733-44.171-0.82731-15.382 2.9446-28.601-19.291-33.318 7.6272-12.275-2.3808-12.524-7.017-2.2523-17.65-11.723-29.886-35.975-29.226-50.568-18.686 6.4557-14.636-18.557-0.5677-15.403 9.6268-20.7 15.97 37.477 24.309 12.237 7.093-6.1287 21.951 11.97 10.604-7.4402 0.0574-23.44 28.513 6.6128 43.942-8.0812 12.554 13.948 33.804 21.725 49.131 13.028-11.897-12.335 16.595-23.432 25.701-16.374 11.351-3.4942 44.823-10.333 24.163 7.8908-11.305 30.385-43.413 19.325-67.68 21.213-22.682 0.22237-23.499 10.985-1.5016 7.7487 9.8198-1.7496-9.3456 20.667 15.139 16.495 11.299-2.1212 31.083-7.3749 25.291 9.1405 10.391 25.319 33.492 43.658 62.087 50.964 31.373 7.3276-13.392-44.979 25.976-34.11 24.607-13.119 22.713 45.513 32.713 61.415 30.308 119.41-10.525 252.95-103.41 334.1-103.28 94.924-260.86 118.96-388.64 61.846z"/>
   <path d="m291.71 662.74c-6.563 1.383 2.0774 8.1351 0 0z"/>
   <path d="m296.35 670.24c-11.89-4.7419-0.52597 11.92 0 0z"/>
   <path d="m331.35 660.24c-7.2446 7.8292 2.354 8.4904 0 0z"/>
   <path d="m342.07 639.16c-2.263 11.239 6.2285-4.5846 0 0z"/>
   <path d="m233.14 581.66c0.28478 13.508 8.1007-4.429 0 0z"/>
   <path d="m197.78 535.24c-2.5955-14.154 9.6684-8.3501 6.4286-20.714 7.7836 6.8908 43.272 25.017 19.643 35-10.016 1.7585-24.406-2.9717-26.071-14.286z"/>
   <path d="m273.49 515.59c-5.2632 0.50518 2.3497 8.0826 0 0z"/>
   <path d="m348.14 466.66c-1.3996 7.986 1.076 44.049 9.5232 15.449 10.352 17.573 7.7476-1.8822 3.6966-8.5714 18.226 4.6209 1.7342-20.772-8.2897-5.1574-4.2503-0.43963-1.3891-1.587-4.9301-1.7203z"/>
   <path d="m443.5 546.21c-15.35 3.072 7.9665 11.384 0 0z"/>
   <path d="m455.37 529.54c5.3448-12.109-23.055-33.241-14.142-4.0406 4.573 1.4788 9.2884 4.8928 14.142 4.0406z"/>
   <path d="m440.22 506.3c11.465 1.7136 3.7376-29.194 13.385-38.638-10.902-3.099-21.266 25.186-13.385 37.376z"/>
   <path d="m399.06 455.8c0.31861 5.4769 9.1819 2.8074 0 0z"/>
   <path d="m404.36 453.52c-8.9872 6.2676 10.195 4.7526 0 0z"/>
   <path d="m411.18 454.53c-7.3216-3.3883-0.67872 8.0644 0 0z"/>
   <path d="m416.1 451c-7.7416 3.9887 5.5901 5.1125 0 0z"/>
   <path d="m411.05 444.18c-6.1992 6.6308 6.9776 11.275 0 0z"/>
   <path d="m420.77 442.03c-7.7787 2.6702 5.7634 3.445 0 0z"/>
   <path d="m416.99 446.2c-10.061 0.15852 6.5286 5.1269 0 0z"/>
   <path d="m416.1 437.11c-8.4754 0.69776 5.319 2.9576 0 0z"/>
   <path d="m410.8 439.13c-6.8642 3.1343 5.8936 3.7392 0 0z"/>
   <path d="m479.21 450.59c-4.4747 1.6804 5.4284 3.1836 0 0z"/>
   <path d="m445.1 435.06c-7.6874-0.51939 1.203 7.3195 0 0z"/>
   <path d="m438.32 424.52c-7.2414 0.48765 3.7548 6.4568 0 0z"/>
   <path d="m476.89 446.13c-5.303-6.1037-0.81787 6.3867 0 0z"/>
   <path d="m447.07 405.06c-4.9311 23.577 37.115-1.217 9.5886-0.77774 0.39817 5.3848-7.0178-0.58227-9.5886 0.77774z"/>
   <path d="m471.71 398.27c-21.463-2.3557 13.678 19.017 0 0z"/>
   <path d="m483.67 416.31c-12.422-2.779 3.7366 8.827 0 0z"/>
   <path d="m483.14 369.16c-4.0363 4.602 7.8974 1.9121 0 0z"/>
   <path d="m493.32 334.7c13.049-13.661-26.432-50.322-8.0357-12.5 1.9434 4.579 0.87903 12.969 8.0357 12.5z"/>
   <path d="m504.39 310.77c-17.365 10.799 12.386 10.437 0 0z"/>
   <path d="m445.52 223.46c-18.623 3.6902 13.665 10.456 0 0z"/>
   <path d="m654.62 237.6c9.0371-6.771 38.975-32.604 28.343-9.7942-8.8442 4.3117-16.862 14.266-28.343 9.7942z"/>
   <path d="m572.8 136.08c-9.1275 2.317-0.11002 11.541 0 0z"/>
   <path d="m638.46 154.27c-3.2776 7.6224 13.358 2.8988 0 0z"/>
   <path d="m559.16 171.94c-9.8109-3.8655 1.1121 8.8646 0 0z"/>
   <path d="m457.14 126.99c-4.2592 6.5224 9.5129 5.9428 0 0z"/>
   <path d="m437.95 146.69c-2.117 13.798 17.106 8.2299 0 0z"/>
   <path d="m428.85 116.89c2.1004 9.5272 7.8341-0.23431 0 0z"/>
   <path d="m248.54 486.1c-7.7187 21.938-17.093-27.877-18.835-2.1978 17.224 22.324-21.69 5.8841-27.455-4.9111-21.973 7.3852-31.359-23.275-53.098-11.579-14.891 2.5633-38.721 6.2642-24.571-15.176-2.1757-20.257 28.267-31.734 43.783-38.552 12.647-1.8616 42.776 13.452 41.093-12.525 26.763 8.0576 36.504-23.349 42.585-35.589 7.3488-9.4921 6.8291 21.766 11.068-2.5106 7.2533-6.0756 12.986 21.639 25.204 11.264 11.676 6.9635 12.671 18.11 18.099 25.2 13.45-9.4365 28.589 33.753 4.7586 17.381 9.1076 11.089-5.1209 9.9125 12.166 16.801-5.9899 10.059-34.308 10.154-32.976 25.733-12.807-10.381-4.1694 22.066-15.556 10.499-10.207 5.5692-9.7863 13.833-21.656-0.25292 16.46 21.857-3.9904 0.39619-1.693 15.569z"/>
   <path d="m232.38 479.54c-5.0161 15.682 10.53 1.0925 0 0z"/>
   <path d="m192.98 406.3c-12.02 6.649 7.3716 9.8988 0 0z"/>
   <path d="m200.56 406.8c-15.861 11.302 10.112 6.4965 0 0z"/>
   <path d="m35.905 425.49c-23.828-0.26364-9.9233-24.086 0 0z"/>
   <path d="m82.877 294.17c-9.5447 6.1908 9.7086 6.5081 0 0z"/>
   <path d="m59.139 276.49c-7.5814 7.9219 10.202 5.4679 0 0z"/>
   <path d="m140.46 293.16c-7.7864 16.352 11.464 7.3428 0 0z"/>
   <path d="m130.86 303.26c-7.0387 10.986 8.6292 5.3457 0 0z"/>
   <path d="m139.7 315.39c-7.0027 6.4045 9.0923 3.633 0 0z"/>
   <path d="m141.72 321.45c-6.2686 5.8467 6.7818-0.0368 0 0z"/>
   <path d="m178.34 330.29c-17.297 0.0628 10.61 22.516 0 0z"/>
   <path d="m149.29 310.59c-2.172-7.5382 7.8384-14.546 1.2627-22.981 14.541-6.1155 27.596 14.673 6.0609 18.688 0.29395 4.2284-4.8606 2.9383-7.3236 4.2932z"/>
   <path d="m289.96 233.06c-16.071-5.1532 0.6723 33.003-12.354 9.3124-14.916 10.601 0.46462-17.494-15.028 0.23168-24.463 9.7014 19.374-15.273-8.5911-9.544-16.314 6.383-33.521 24.421-26.657 35.355 9.4442-10.583 28.542 12.328 36.847 9.0731-10.371-14.323-12.308-13.792 2.9271-11.804 12.133-17.05 16.385 5.7005 34.189-7.8973-3.1146-7.6054-1.326-22.472-11.334-24.727z"/>
   <path d="m304.1 297.71c-5.6759 17.403-16.017-15.003-2.0752-4.6301-7.4249 1.4848-3.7572 7.3321 2.0752 4.6301z"/>
   <path d="m302.59 287.1c25.564-13.321-15.279-30.5 0 0z"/>
   <path d="m296.52 284.58c-3.8937 2.5593-0.6237 7.3453 0 0z"/>
   <path d="m284.4 281.04c13.509 15.864-24.542 14.238-7.8462-2.413 6.2396-16.211 5.0644-1.8084 7.8462 2.413z"/>
   <path d="m289.45 282.56c-18.61-25.003 23.633-2.2618 0 0z"/>
   <path d="m288.44 301.24c-9.9565-6.781 2.3191 8.2276 0 0z"/>
   <path d="m278.85 296.7c-8.5805 6.2929 8.5126 3.0332 0 0z"/>
   <path d="m252.58 287.1c-0.25626-18.377-31.971 4.3829-2.5254 10.102 7.672 3.9991 10.843-9.5928 2.5254-10.102z"/>
   <path d="m263.19 303.77c3.6606-18.879 22.145 17.6 0 0z"/>
   <path d="m281.88 312.86c26.091-13.586 19.265 19.621 0 0z"/>
   <path d="m298.04 322.46c-10.084 0.45534 3.304 8.3947 0 0z"/>
   <path d="m288.95 320.94c-15.003-9.2584-2.1827 11.553 0 0z"/>
   <path d="m275.31 316.9c-3.7974 9.7971 7.7377 3.4012 0 0z"/>
   <path d="m271.78 312.36c-16.65-0.29597-35.501 7.0296-30.305 28.284 8.6588 3.9978 19.328-32.149 16.162-11.112-12.491 23.695 24.978 27.843 36.366 43.942 25.129 25.765 16.114-58.197 0-23.234-4.611 19.221-5.8192-18.798 9.0914-13.637-11.186-21.363-30.245 4.5222-34.276-2.5732 0.46153-5.1471-0.24647-11.426 2.9608-21.67z"/>
   <path d="m273.29 325.49c-3.2866-5.8707-6.9107 5.6283 0 0z"/>
   <path d="m260.28 306.31c-25.591-7.1934 17.031 17.199 0 0z"/>
   <path d="m23.494 401.31c9.983 9.8837 20.459 36.457 33.571 10.714 2.8663-23.868 26.881-24.119 45-36.071 6.9913-8.2595-25.471-22.348 3.2882-26.76 13.94 1.785 26.649-13.318 25.998-27.525 2.9503-9.9503-27.923-14.097-36.071-12.857-22.204 9.5536-26.157-29.608-52.289-21.01 1.7522-26.451 45.336 4.1596 47.646-27.918 17.593-8.8814 24.295-26.53 42.143-22.857 17.017-3.5562 27.59 28.699 28.929 42.857 18.217 14.445 8.023 19.874 14.087 34.284 14.563 11.939 40.715-0.89714 11.985-12.141-5.1301-16.961 24.072 6.8509 12.143-11.429 19.482 0.83638 35.161 3.1658 44.567 21.405 12.527-9.6659-15.815-31.044-29.21-29.976-14.506 3.5693-20.507-18.685-4.1501-12.524-10.299-25.511 44.697-16.717 12.721-32.179 4.9675-4.1592 18.42-0.92031 20.155-15.071 14.627 20.219 32.66-12.059 53.02-4.1986 12.472-16.053 20.72-25.465 41.826-16.385 23.887-2.1577 40.877 13.857 59.443 2.1973 3.1909-16.083 27.73-8.5315 8.057-27.197-29.651-22.197 31.555 7.7365 14.635-15.447-1.3686-13.568-34.248-1.9357-16.685-18.802 27.242 5.4718 24.528-31.961 5.9785-35.037 7.3671-15.221-34.456 3.5919-14.286-22.143 26.625-5.7748 10.502-18.955-5.7143-1.0714-22.105 4.7752-16.355 38.211-36.773 37.17 20.64-16.777-4.8586-19.753-7.5124-0.74162-21.088-11.555-48.681 1.5261-65.369-22.674-17.534-20.115-32.973 2.0504-45.654-23.342-18.682 10.466-7.4803-24.996-27.211-5.5635-89.68 48.76-162.05 134.6-178.96 237.04-5.809 31.361-7.2654 63.448-5.3028 95.256z"/>
   <path d="m254.21 83.45c-28.261-29.471 12-9.9606 0 0z"/>
   <path d="m365.64 97.379c25.531-15.252-1.9558-22.91 0 0z"/>
   <path d="m417.42 72.736c-5.9573 7.6241 15.672 0.28205 0 0z"/>
   <path d="m427.07 68.093c-8.4747 7.2603 12.293 2.0571 0 0z"/>
   <path d="m444.57 63.807c-5.3935 8.2454 11.147-3.7626 0 0z"/>
   <path d="m404.57 70.593c3.2552-10.824 7.9774 5.6044 0 0z"/>
   <path d="m420.28 65.95c-6.0318 3.0276 5.8635 1.8474 0 0z"/>
   <path d="m454.57 63.45c-1.5043 8.4603 6.5235-1.8114 0 0z"/>
   <path d="m463.49 60.95c-5.8233-0.62719 1.1297 6.3358 0 0z"/>
   <path d="m488.14 65.95c-17.682-5.7824 12.359-1.0026 1.1454 1.0736z"/>
   <path d="m502.78 68.093c7.6018-5.3613 12.532 9.1764 1.0714 1.4286"/>
   <path d="m524.92 75.593c9.05-2.1613 3.4309 6.4452 0 0z"/>
   <path d="m534.21 83.45c-5.3272-3.8027 0.30535 6.3349 0 0z"/>
   <path d="m553.14 104.52c-10.008-9.1371-4.4842 4.9495 0 0z"/>
   <path d="m550.28 94.164c-6.1702 2.741 3.7572 5.4717 0 0z"/>
   <path d="m213.14 277.74c-4.068-25.219 23.307 4.5197 0 0z"/>
   <path d="m117.78 369.16c-11.579 0.66981 3.5282 8.541 0 0z"/>
   <path d="m123.49 367.38c-6.858-22.248 26.378-20.625 26.071-39.592 10.091-22.64 2.3276 19.473 19.643 17.449 23.989 2.8291 30.191-21.054 40-40.357 12.304-8.9881 39.172 15.582 24.643 15.357-18.365-12.304 15.995 18.953-11.938 13.344-1.2513 0.34384 20.173-1.046 4.3068 10.592-22.787-2.2794-24.579 30.964-46.655 21.065-4.8416 14.071-32.264 30.843-27.143 6.7857 20.534-14.279-8.8631-11.174-11.061 2.9995-23.713 2.9246-7.6201-9.6761-6.3936-17.863-6.237 1.2178-5.3136 8.7756-11.474 10.221z"/>
  </g>
  <ellipse cx="371.26" cy="377.45" rx="351.04" ry="350.45" fill="none" stroke="#fff" stroke-width="5.3"/>
  <circle transform="translate(17.508 23.7)" r="0" fill="#279f00" fill-rule="evenodd" opacity=".5" stroke="#fff" stroke-linecap="square" stroke-linejoin="round" style="paint-order:normal"/>
 </g>
</svg>
