<?xml version="1.0" encoding="UTF-8"?>
<svg width="380.6" height="380.6" version="1.1" viewBox="0 0 380.6 380.6" xml:space="preserve" xmlns="http://www.w3.org/2000/svg"><g transform="matrix(1.3333 0 0 -1.3333 -343.03 895.66)"><g transform="translate(542.73 529.02)"><path d="m0 0c0-78.825-63.9-142.73-142.73-142.73-78.825 0-142.72 63.901-142.72 142.73s63.9 142.73 142.72 142.73c78.826 0 142.73-63.901 142.73-142.73" fill="#fafbfb"/></g><g transform="translate(332.66 580.11)"><path d="m0 0c0-12.408-10.059-22.467-22.468-22.467-12.408 0-22.467 10.059-22.467 22.467 0 12.409 10.059 22.468 22.467 22.468 12.409 0 22.468-10.059 22.468-22.468" fill="#e0e0e0"/></g><g transform="translate(289.65 578.19)"><path d="m0 0c0 12.408 10.059 22.467 22.467 22.467 5.716 0 10.929-2.137 14.894-5.652-4.116 4.644-10.122 7.574-16.816 7.574-12.408 0-22.467-10.059-22.467-22.468 0-6.692 2.93-12.699 7.574-16.815-3.515 3.965-5.652 9.179-5.652 14.894" fill="#bdbdbd"/></g><g transform="translate(311.08 602.58)"><path d="m0 0c-0.148 0-0.295-9e-3 -0.443-0.011 12.203-0.238 22.024-10.197 22.024-22.457 0-12.408-10.059-22.467-22.468-22.467-12.259 0-22.219 9.821-22.456 22.024-3e-3 -0.148-0.011-0.295-0.011-0.443 0-12.898 10.456-23.354 23.354-23.354s23.354 10.456 23.354 23.354-10.456 23.354-23.354 23.354" fill="#f5f5f5"/></g><g transform="translate(470.65 619.48)"><path d="m0 0c0-6.205-5.03-11.234-11.234-11.234s-11.234 5.029-11.234 11.234c0 6.204 5.03 11.233 11.234 11.233s11.234-5.029 11.234-11.233" fill="#e0e0e0"/></g><g transform="translate(449.14 618.52)"><path d="m0 0c0 6.204 5.029 11.234 11.233 11.234 2.858 0 5.465-1.069 7.448-2.826-2.059 2.321-5.062 3.786-8.409 3.786-6.204 0-11.233-5.029-11.233-11.233 0-3.347 1.465-6.35 3.787-8.408-1.758 1.983-2.826 4.59-2.826 7.447" fill="#bdbdbd"/></g><g transform="translate(459.86 630.71)"><path d="m0 0c-0.074 0-0.147-4e-3 -0.222-5e-3 6.102-0.119 11.013-5.099 11.013-11.228 0-6.205-5.03-11.234-11.234-11.234-6.13 0-11.11 4.91-11.228 11.012-2e-3 -0.074-6e-3 -0.148-6e-3 -0.222 0-6.449 5.228-11.677 11.677-11.677s11.677 5.228 11.677 11.677-5.228 11.677-11.677 11.677" fill="#f5f5f5"/></g><g transform="translate(526.76 505.54)"><path d="m0 0c0-15.482-12.551-28.032-28.032-28.032-15.483 0-28.033 12.55-28.033 28.032s12.55 28.033 28.033 28.033c15.481 0 28.032-12.551 28.032-28.033" fill="#e0e0e0"/></g><g transform="translate(473.09 503.15)"><path d="m0 0c0 15.482 12.551 28.033 28.033 28.033 7.131 0 13.636-2.667 18.582-7.053-5.135 5.794-12.629 9.45-20.979 9.45-15.483 0-28.033-12.551-28.033-28.033 0-8.351 3.656-15.844 9.45-20.98-4.386 4.948-7.053 11.452-7.053 18.583" fill="#bdbdbd"/></g><g transform="translate(499.83 533.58)"><path d="m0 0c-0.186 0-0.368-0.01-0.553-0.014 15.226-0.296 27.48-12.722 27.48-28.019 0-15.482-12.551-28.032-28.032-28.032-15.297 0-27.724 12.254-28.019 27.48-4e-3 -0.185-0.015-0.368-0.015-0.554 0-16.092 13.046-29.138 29.139-29.138s29.139 13.046 29.139 29.138c0 16.093-13.046 29.139-29.139 29.139" fill="#f5f5f5"/></g><g transform="translate(451.85 440.05)"><path d="m0 0c0-15.482-12.551-28.032-28.033-28.032s-28.032 12.55-28.032 28.032 12.55 28.033 28.032 28.033 28.033-12.551 28.033-28.033" fill="#e0e0e0"/></g><g transform="translate(398.18 437.66)"><path d="m0 0c0 15.482 12.551 28.033 28.033 28.033 7.13 0 13.635-2.668 18.582-7.053-5.135 5.794-12.629 9.45-20.98 9.45-15.482 0-28.032-12.551-28.032-28.033 0-8.351 3.656-15.844 9.45-20.98-4.386 4.947-7.053 11.452-7.053 18.583" fill="#bdbdbd"/></g><g transform="translate(424.92 468.09)"><path d="m0 0c-0.186 0-0.368-0.011-0.553-0.014 15.226-0.296 27.48-12.722 27.48-28.019 0-15.482-12.551-28.032-28.033-28.032-15.296 0-27.723 12.254-28.019 27.48-3e-3 -0.185-0.014-0.368-0.014-0.554 0-16.092 13.046-29.138 29.139-29.138s29.139 13.046 29.139 29.138c0 16.093-13.046 29.139-29.139 29.139" fill="#f5f5f5"/></g><g transform="translate(384.11 457.08)"><path d="m0 0c0-8.718-7.067-15.786-15.785-15.786s-15.786 7.068-15.786 15.786 7.068 15.786 15.786 15.786 15.785-7.068 15.785-15.786" fill="#e0e0e0"/></g><g transform="translate(353.89 455.73)"><path d="m0 0c0 8.718 7.067 15.786 15.786 15.786 4.015 0 7.678-1.502 10.464-3.972-2.892 3.263-7.112 5.322-11.814 5.322-8.719 0-15.786-7.068-15.786-15.786 0-4.703 2.058-8.922 5.321-11.814-2.469 2.786-3.971 6.448-3.971 10.464" fill="#bdbdbd"/></g><g transform="translate(368.94 472.87)"><path d="m0 0c-0.104 0-0.207-6e-3 -0.312-8e-3 8.575-0.166 15.475-7.164 15.475-15.778 0-8.718-7.067-15.785-15.786-15.785-8.613 0-15.611 6.9-15.777 15.474-2e-3 -0.104-8e-3 -0.207-8e-3 -0.312 0-9.062 7.346-16.408 16.408-16.408 9.063 0 16.409 7.346 16.409 16.408 0 9.063-7.346 16.409-16.409 16.409" fill="#f5f5f5"/></g><g transform="translate(407.24 478.91)"><path d="m0 0c0-5.277-4.278-9.555-9.556-9.555-5.277 0-9.554 4.278-9.554 9.555s4.277 9.555 9.554 9.555c5.278 0 9.556-4.278 9.556-9.555" fill="#e0e0e0"/></g><g transform="translate(388.94 478.1)"><path d="m0 0c0 5.277 4.278 9.555 9.555 9.555 2.431 0 4.648-0.909 6.334-2.404-1.75 1.975-4.305 3.222-7.151 3.222-5.277 0-9.555-4.278-9.555-9.556 0-2.846 1.246-5.4 3.221-7.151-1.495 1.687-2.404 3.903-2.404 6.334" fill="#bdbdbd"/></g><g transform="translate(398.06 488.47)"><path d="m0 0c-0.063 0-0.126-3e-3 -0.189-5e-3 5.19-0.1 9.367-4.336 9.367-9.55 0-5.278-4.278-9.555-9.555-9.555-5.214 0-9.45 4.176-9.551 9.366-1e-3 -0.063-5e-3 -0.125-5e-3 -0.188 0-5.485 4.447-9.932 9.933-9.932 5.485 0 9.932 4.447 9.932 9.932s-4.447 9.932-9.932 9.932" fill="#f5f5f5"/></g><g transform="translate(535.42 545.14)"><path d="m0 0c0-5.969-4.839-10.808-10.808-10.808-5.967 0-10.806 4.839-10.806 10.808s4.839 10.807 10.806 10.807c5.969 0 10.808-4.838 10.808-10.807" fill="#e0e0e0"/></g><g transform="translate(514.73 544.22)"><path d="m0 0c0 5.969 4.839 10.807 10.808 10.807 2.749 0 5.256-1.028 7.164-2.719-1.98 2.234-4.869 3.643-8.089 3.643-5.968 0-10.807-4.838-10.807-10.807 0-3.219 1.409-6.109 3.643-8.089-1.691 1.908-2.719 4.416-2.719 7.165" fill="#bdbdbd"/></g><g transform="translate(525.04 555.95)"><path d="m0 0c-0.071 0-0.142-4e-3 -0.213-5e-3 5.87-0.114 10.594-4.905 10.594-10.802 0-5.969-4.839-10.808-10.808-10.808-5.896 0-10.687 4.724-10.802 10.594 0-0.071-4e-3 -0.141-4e-3 -0.213 0-6.204 5.029-11.233 11.233-11.233s11.234 5.029 11.234 11.233c0 6.205-5.03 11.234-11.234 11.234" fill="#f5f5f5"/></g><g transform="translate(338.84 531.77)"><path d="m0 0c0-7.868-6.379-14.247-14.247-14.247-7.869 0-14.247 6.379-14.247 14.247 0 7.869 6.378 14.247 14.247 14.247 7.868 0 14.247-6.378 14.247-14.247" fill="#e0e0e0"/></g><g transform="translate(311.56 530.55)"><path d="m0 0c0 7.868 6.379 14.247 14.247 14.247 3.624 0 6.93-1.355 9.444-3.584-2.609 2.944-6.418 4.802-10.662 4.802-7.869 0-14.247-6.378-14.247-14.247 0-4.244 1.858-8.052 4.802-10.662-2.229 2.514-3.584 5.82-3.584 9.444" fill="#bdbdbd"/></g><g transform="translate(325.15 546.02)"><path d="m0 0c-0.094 0-0.187-5e-3 -0.281-7e-3 7.738-0.15 13.966-6.466 13.966-14.24 0-7.868-6.379-14.247-14.247-14.247-7.774 0-14.09 6.228-14.24 13.966-2e-3 -0.094-7e-3 -0.187-7e-3 -0.281 0-8.179 6.63-14.809 14.809-14.809s14.809 6.63 14.809 14.809-6.63 14.809-14.809 14.809" fill="#f5f5f5"/></g><g transform="translate(368.94 583.74)"><path d="m0 0c0-6.592-5.344-11.937-11.937-11.937-6.592 0-11.937 5.345-11.937 11.937 0 6.593 5.345 11.937 11.937 11.937 6.593 0 11.937-5.344 11.937-11.937" fill="#e0e0e0"/></g><g transform="translate(346.09 582.72)"><path d="m0 0c0 6.592 5.344 11.937 11.937 11.937 3.036 0 5.806-1.136 7.913-3.003-2.187 2.467-5.378 4.024-8.934 4.024-6.593 0-11.937-5.345-11.937-11.937 0-3.557 1.557-6.747 4.024-8.934-1.867 2.106-3.003 4.876-3.003 7.913" fill="#bdbdbd"/></g><g transform="translate(357.48 595.68)"><path d="m0 0c-0.079 0-0.157-4e-3 -0.235-6e-3 6.483-0.126 11.701-5.417 11.701-11.931 0-6.592-5.344-11.937-11.937-11.937-6.513 0-11.805 5.218-11.931 11.702-1e-3 -0.079-6e-3 -0.157-6e-3 -0.236 0-6.852 5.555-12.408 12.408-12.408s12.408 5.556 12.408 12.408c0 6.853-5.555 12.408-12.408 12.408" fill="#f5f5f5"/></g><g transform="translate(343.55 448.74)"><path d="m0 0c0-4.446-3.604-8.05-8.05-8.05s-8.05 3.604-8.05 8.05 3.604 8.05 8.05 8.05 8.05-3.604 8.05-8.05" fill="#e0e0e0"/></g><g transform="translate(328.14 448.05)"><path d="m0 0c0 4.446 3.604 8.05 8.05 8.05 2.048 0 3.916-0.766 5.336-2.025-1.474 1.663-3.626 2.713-6.025 2.713-4.445 0-8.049-3.604-8.049-8.05 0-2.398 1.049-4.55 2.713-6.024-1.259 1.42-2.025 3.288-2.025 5.336" fill="#bdbdbd"/></g><g transform="translate(335.81 456.79)"><path d="m0 0c-0.053 0-0.106-3e-3 -0.159-4e-3 4.372-0.085 7.891-3.653 7.891-8.046 0-4.446-3.604-8.05-8.05-8.05-4.392 0-7.961 3.519-8.046 7.892-1e-3 -0.054-4e-3 -0.106-4e-3 -0.16 0-4.621 3.746-8.367 8.368-8.367 4.621 0 8.368 3.746 8.368 8.367 0 4.622-3.747 8.368-8.368 8.368" fill="#f5f5f5"/></g></g></svg>
