<?xml version="1.0" encoding="UTF-8" standalone="no"?>
<!-- Created with Inkscape (http://www.inkscape.org/) -->

<svg
   xmlns:dc="http://purl.org/dc/elements/1.1/"
   xmlns:cc="http://creativecommons.org/ns#"
   xmlns:rdf="http://www.w3.org/1999/02/22-rdf-syntax-ns#"
   xmlns:svg="http://www.w3.org/2000/svg"
   xmlns="http://www.w3.org/2000/svg"
   xmlns:sodipodi="http://sodipodi.sourceforge.net/DTD/sodipodi-0.dtd"
   xmlns:inkscape="http://www.inkscape.org/namespaces/inkscape"
   version="1.1"
   id="svg2"
   xml:space="preserve"
   width="380.60132"
   height="380.60266"
   viewBox="0 0 380.6013 380.60264"
   sodipodi:docname="109447-ONIPJK-841.ai"
   inkscape:version="0.92.3 (2405546, 2018-03-11)"><metadata
     id="metadata8"><rdf:RDF><cc:Work
         rdf:about=""><dc:format>image/svg+xml</dc:format><dc:type
           rdf:resource="http://purl.org/dc/dcmitype/StillImage" /><dc:title></dc:title></cc:Work></rdf:RDF></metadata><defs
     id="defs6"><clipPath
       clipPathUnits="userSpaceOnUse"
       id="clipPath18"><path
         d="M 0,0 H 800 V 800 H 0 Z"
         id="path16"
         inkscape:connector-curvature="0" /></clipPath><linearGradient
       x1="0"
       y1="0"
       x2="1"
       y2="0"
       gradientUnits="userSpaceOnUse"
       gradientTransform="matrix(0,-591.35767,-591.35767,0,400,783.81067)"
       spreadMethod="pad"
       id="linearGradient28"><stop
         style="stop-opacity:1;stop-color:#0a3f60"
         offset="0"
         id="stop24" /><stop
         style="stop-opacity:1;stop-color:#002032"
         offset="1"
         id="stop26" /></linearGradient><clipPath
       clipPathUnits="userSpaceOnUse"
       id="clipPath38"><path
         d="M 0,800 H 800 V 0 H 0 Z"
         id="path36"
         inkscape:connector-curvature="0" /></clipPath><clipPath
       clipPathUnits="userSpaceOnUse"
       id="clipPath46"><path
         d="M 19.1118,771.414 H 796.369 V 338.196 H 19.1118 Z"
         id="path44"
         inkscape:connector-curvature="0" /></clipPath><clipPath
       clipPathUnits="userSpaceOnUse"
       id="clipPath234"><path
         d="M 257.275,541.147 H 542.726 V 386.294 H 257.275 Z"
         id="path232"
         inkscape:connector-curvature="0" /></clipPath><clipPath
       clipPathUnits="userSpaceOnUse"
       id="clipPath250"><path
         d="M 261.072,496.2 H 538.927 V 386.294 H 261.072 Z"
         id="path248"
         inkscape:connector-curvature="0" /></clipPath><clipPath
       clipPathUnits="userSpaceOnUse"
       id="clipPath282"><path
         d="M 209.191,719.828 H 590.809 V 338.211 H 209.191 Z"
         id="path280"
         inkscape:connector-curvature="0" /></clipPath><clipPath
       clipPathUnits="userSpaceOnUse"
       id="clipPath286"><path
         d="m 590.809,529.02 c 0,-105.381 -85.428,-190.809 -190.809,-190.809 -105.381,0 -190.809,85.428 -190.809,190.809 0,105.38 85.428,190.809 190.809,190.809 105.381,0 190.809,-85.429 190.809,-190.809"
         id="path284"
         inkscape:connector-curvature="0" /></clipPath><clipPath
       clipPathUnits="userSpaceOnUse"
       id="clipPath290"><path
         d="M -32768,32767 H 32767 V -32768 H -32768 Z"
         id="path288"
         inkscape:connector-curvature="0" /></clipPath><radialGradient
       fx="0"
       fy="0"
       cx="0"
       cy="0"
       r="1"
       gradientUnits="userSpaceOnUse"
       gradientTransform="matrix(190.80859,0,0,-190.80859,400,529.0199)"
       spreadMethod="pad"
       id="radialGradient304"><stop
         style="stop-opacity:1;stop-color:#ffffff"
         offset="0"
         id="stop292" /><stop
         style="stop-opacity:1;stop-color:#ffffff"
         offset="0.686552"
         id="stop294" /><stop
         style="stop-opacity:0;stop-color:#ffffff"
         offset="0.9001898"
         id="stop296" /><stop
         style="stop-opacity:0;stop-color:#ffffff"
         offset="0.969558"
         id="stop298" /><stop
         style="stop-opacity:0;stop-color:#ffffff"
         offset="0.98917977"
         id="stop300" /><stop
         style="stop-opacity:0;stop-color:#ffffff"
         offset="1"
         id="stop302" /></radialGradient><mask
       maskUnits="userSpaceOnUse"
       x="0"
       y="0"
       width="1"
       height="1"
       id="mask306"><g
         id="g316"><g
           clip-path="url(#clipPath290)"
           id="g314"><g
             id="g312"><g
               id="g310"><path
                 d="M -32768,32767 H 32767 V -32768 H -32768 Z"
                 style="fill:url(#radialGradient304);stroke:none"
                 id="path308"
                 inkscape:connector-curvature="0" /></g></g></g></g></mask><radialGradient
       fx="0"
       fy="0"
       cx="0"
       cy="0"
       r="1"
       gradientUnits="userSpaceOnUse"
       gradientTransform="matrix(190.80859,0,0,-190.80859,400,529.0199)"
       spreadMethod="pad"
       id="radialGradient330"><stop
         style="stop-opacity:1;stop-color:#ffffff"
         offset="0"
         id="stop318" /><stop
         style="stop-opacity:1;stop-color:#ffffff"
         offset="0.686552"
         id="stop320" /><stop
         style="stop-opacity:1;stop-color:#ffffff"
         offset="0.9001898"
         id="stop322" /><stop
         style="stop-opacity:1;stop-color:#ffffff"
         offset="0.969558"
         id="stop324" /><stop
         style="stop-opacity:1;stop-color:#ffffff"
         offset="0.98917977"
         id="stop326" /><stop
         style="stop-opacity:1;stop-color:#ffffff"
         offset="1"
         id="stop328" /></radialGradient><clipPath
       clipPathUnits="userSpaceOnUse"
       id="clipPath356"><path
         d="m 767.12,351.94 c -41.44,-9.61 -74.161,-37.1 -91.41,-72.61 v 0 c -0.571,-0.09 -1.139,-0.15 -1.72,-0.25 v 0 c -25.67,-4.25 -46.23,-20.64 -55.96,-42.07 v 0 c -8.339,4.629 -18.3,6.81 -28.721,5.65 v 0 c -3.629,-0.41 -7.109,-1.2 -10.408,-2.33 v 0 c -22.941,43.981 -70.421,72.43 -122.911,70.7 v 0 c -51.571,-1.84 -96.211,-32.41 -116.62,-76.56 v 0 c -2.68,0.91 -5.54,1.46 -8.53,1.58 v 0 c -6.4,0.26 -12.389,-1.469 -17.311,-4.61 v 0 c -10.349,10.95 -24.909,18.279 -41.469,19.529 v 0 c -11.109,0.841 -21.729,-1.149 -31.11,-5.349 v 0 c -13.38,19.12 -34.76,32.82 -60.15,36.191 v 0 c -27.481,3.619 -53.69,-5.651 -71.88,-23.181 v 0 c -4.24,2.07 -8.85,3.589 -13.759,4.49 v 0 C 82.95,265.33 71.05,263.219 61.14,257.93 v 0 C 54.09,288.72 31.4,315.08 0,327.219 v 0 -174.499 h 800 v 202.731 c -0.632,0.008 -1.265,0.013 -1.898,0.013 v 0 c -10.246,0 -20.632,-1.142 -30.982,-3.524"
         id="path354"
         inkscape:connector-curvature="0" /></clipPath><clipPath
       clipPathUnits="userSpaceOnUse"
       id="clipPath364"><path
         d="M -32768,32767 H 32767 V -32768 H -32768 Z"
         id="path362"
         inkscape:connector-curvature="0" /></clipPath><radialGradient
       fx="0"
       fy="0"
       cx="0"
       cy="0"
       r="1"
       gradientUnits="userSpaceOnUse"
       gradientTransform="matrix(641.61139,0,0,-181.44194,399.02264,345.16949)"
       spreadMethod="pad"
       id="radialGradient376"><stop
         style="stop-opacity:1;stop-color:#ffffff"
         offset="0"
         id="stop366" /><stop
         style="stop-opacity:1;stop-color:#ffffff"
         offset="0.29221049"
         id="stop368" /><stop
         style="stop-opacity:0;stop-color:#ffffff"
         offset="0.861866"
         id="stop370" /><stop
         style="stop-opacity:0;stop-color:#ffffff"
         offset="0.95090199"
         id="stop372" /><stop
         style="stop-opacity:0;stop-color:#ffffff"
         offset="1"
         id="stop374" /></radialGradient><mask
       maskUnits="userSpaceOnUse"
       x="0"
       y="0"
       width="1"
       height="1"
       id="mask378"><g
         id="g388"><g
           clip-path="url(#clipPath364)"
           id="g386"><g
             id="g384"><g
               id="g382"><path
                 d="M -32768,32767 H 32767 V -32768 H -32768 Z"
                 style="fill:url(#radialGradient376);stroke:none"
                 id="path380"
                 inkscape:connector-curvature="0" /></g></g></g></g></mask><radialGradient
       fx="0"
       fy="0"
       cx="0"
       cy="0"
       r="1"
       gradientUnits="userSpaceOnUse"
       gradientTransform="matrix(641.61139,0,0,-181.44194,399.02264,345.16949)"
       spreadMethod="pad"
       id="radialGradient404"><stop
         style="stop-opacity:1;stop-color:#083044"
         offset="0"
         id="stop394" /><stop
         style="stop-opacity:1;stop-color:#083044"
         offset="0.29221049"
         id="stop396" /><stop
         style="stop-opacity:1;stop-color:#0a3f60"
         offset="0.861866"
         id="stop398" /><stop
         style="stop-opacity:1;stop-color:#0a3f60"
         offset="0.95090199"
         id="stop400" /><stop
         style="stop-opacity:1;stop-color:#0a3f60"
         offset="1"
         id="stop402" /></radialGradient><clipPath
       clipPathUnits="userSpaceOnUse"
       id="clipPath414"><path
         d="M 0,0 H 800 V 248.42 C 737.47,244.63 674.09,234.5 617.19,215.54 v 0 l -3.68,10.08 -4.38,-12.02 -2.32,6.34 -3.291,-9.011 C 503.62,177.66 413.18,174.78 328.16,185.781 v 0 l -3.26,8.929 -2.95,-8.099 c -1.12,0.149 -2.23,0.299 -3.34,0.459 v 0 l -4.18,11.449 -3.75,-10.279 c -55.2,8.399 -108.19,22.25 -160.1,36.93 v 0 l -5.68,15.56 -4.61,-12.63 C 92.98,241.59 46.5,255.52 0,266.33 v 0 z"
         id="path412"
         inkscape:connector-curvature="0" /></clipPath><radialGradient
       fx="0"
       fy="0"
       cx="0"
       cy="0"
       r="1"
       gradientUnits="userSpaceOnUse"
       gradientTransform="matrix(741.94891,0,0,-152.7057,394.28561,245.05536)"
       spreadMethod="pad"
       id="radialGradient430"><stop
         style="stop-opacity:1;stop-color:#0a517a"
         offset="0"
         id="stop420" /><stop
         style="stop-opacity:1;stop-color:#0a517a"
         offset="0.112966"
         id="stop422" /><stop
         style="stop-opacity:1;stop-color:#0a3f60"
         offset="0.53557007"
         id="stop424" /><stop
         style="stop-opacity:1;stop-color:#0a3f60"
         offset="0.767791"
         id="stop426" /><stop
         style="stop-opacity:1;stop-color:#0a3f60"
         offset="1"
         id="stop428" /></radialGradient><clipPath
       clipPathUnits="userSpaceOnUse"
       id="clipPath440"><path
         d="M 0,800 H 800 V 0 H 0 Z"
         id="path438"
         inkscape:connector-curvature="0" /></clipPath><clipPath
       clipPathUnits="userSpaceOnUse"
       id="clipPath448"><path
         d="M 0,266.33 H 800 V 0 H 0 Z"
         id="path446"
         inkscape:connector-curvature="0" /></clipPath><clipPath
       clipPathUnits="userSpaceOnUse"
       id="clipPath452"><path
         d="M 800,0 V 248.42 C 737.47,244.63 674.09,234.5 617.19,215.54 l -3.68,10.08 -4.38,-12.02 -2.32,6.34 -3.29,-9.01 C 503.62,177.66 413.18,174.78 328.16,185.78 l -3.26,8.93 -2.95,-8.1 c -1.12,0.15 -2.23,0.3 -3.34,0.46 l -4.18,11.45 -3.75,-10.28 c -55.2,8.4 -108.19,22.25 -160.1,36.93 l -5.68,15.56 -4.61,-12.63 C 92.98,241.59 46.5,255.52 0,266.33 V 0 Z"
         id="path450"
         inkscape:connector-curvature="0" /></clipPath><clipPath
       clipPathUnits="userSpaceOnUse"
       id="clipPath456"><path
         d="M -32768,32767 H 32767 V -32768 H -32768 Z"
         id="path454"
         inkscape:connector-curvature="0" /></clipPath><radialGradient
       fx="0"
       fy="0"
       cx="0"
       cy="0"
       r="1"
       gradientUnits="userSpaceOnUse"
       gradientTransform="matrix(329.92596,0,0,-157.21249,403.99982,249.59074)"
       spreadMethod="pad"
       id="radialGradient470"><stop
         style="stop-opacity:1;stop-color:#ffffff"
         offset="0"
         id="stop458" /><stop
         style="stop-opacity:1;stop-color:#ffffff"
         offset="0.48212"
         id="stop460" /><stop
         style="stop-opacity:0;stop-color:#ffffff"
         offset="0.85008105"
         id="stop462" /><stop
         style="stop-opacity:0;stop-color:#ffffff"
         offset="0.969558"
         id="stop464" /><stop
         style="stop-opacity:0;stop-color:#ffffff"
         offset="0.98917977"
         id="stop466" /><stop
         style="stop-opacity:0;stop-color:#ffffff"
         offset="1"
         id="stop468" /></radialGradient><mask
       maskUnits="userSpaceOnUse"
       x="0"
       y="0"
       width="1"
       height="1"
       id="mask472"><g
         id="g482"><g
           clip-path="url(#clipPath456)"
           id="g480"><g
             id="g478"><g
               id="g476"><path
                 d="M -32768,32767 H 32767 V -32768 H -32768 Z"
                 style="fill:url(#radialGradient470);stroke:none"
                 id="path474"
                 inkscape:connector-curvature="0" /></g></g></g></g></mask><radialGradient
       fx="0"
       fy="0"
       cx="0"
       cy="0"
       r="1"
       gradientUnits="userSpaceOnUse"
       gradientTransform="matrix(329.92596,0,0,-157.21249,403.99982,249.59074)"
       spreadMethod="pad"
       id="radialGradient496"><stop
         style="stop-opacity:1;stop-color:#ffffff"
         offset="0"
         id="stop484" /><stop
         style="stop-opacity:1;stop-color:#ffffff"
         offset="0.48212"
         id="stop486" /><stop
         style="stop-opacity:1;stop-color:#0a3f60"
         offset="0.85008105"
         id="stop488" /><stop
         style="stop-opacity:1;stop-color:#0a3f60"
         offset="0.969558"
         id="stop490" /><stop
         style="stop-opacity:1;stop-color:#0a3f60"
         offset="0.98917977"
         id="stop492" /><stop
         style="stop-opacity:1;stop-color:#0a3f60"
         offset="1"
         id="stop494" /></radialGradient><clipPath
       clipPathUnits="userSpaceOnUse"
       id="clipPath542"><path
         d="M 0,0 H 755.966 C 527.198,110.192 221.137,156.168 0,175.32 v 0 z"
         id="path540"
         inkscape:connector-curvature="0" /></clipPath><radialGradient
       fx="0"
       fy="0"
       cx="0"
       cy="0"
       r="1"
       gradientUnits="userSpaceOnUse"
       gradientTransform="matrix(397.3544,-94.453064,-72.943985,-306.86789,359.22623,140.3322)"
       spreadMethod="pad"
       id="radialGradient554"><stop
         style="stop-opacity:1;stop-color:#0a3b5b"
         offset="0"
         id="stop548" /><stop
         style="stop-opacity:1;stop-color:#0a3b5b"
         offset="0.59552162"
         id="stop550" /><stop
         style="stop-opacity:1;stop-color:#082b3b"
         offset="1"
         id="stop552" /></radialGradient><clipPath
       clipPathUnits="userSpaceOnUse"
       id="clipPath564"><path
         d="M 0,800 H 800 V 0 H 0 Z"
         id="path562"
         inkscape:connector-curvature="0" /></clipPath><clipPath
       clipPathUnits="userSpaceOnUse"
       id="clipPath572"><path
         d="M 0,175.32 H 755.966 V 0 H 0 Z"
         id="path570"
         inkscape:connector-curvature="0" /></clipPath><clipPath
       clipPathUnits="userSpaceOnUse"
       id="clipPath576"><path
         d="M 755.966,0 C 527.198,110.192 221.137,156.168 0,175.32 V 0 Z"
         id="path574"
         inkscape:connector-curvature="0" /></clipPath><clipPath
       clipPathUnits="userSpaceOnUse"
       id="clipPath580"><path
         d="M -32768,32767 H 32767 V -32768 H -32768 Z"
         id="path578"
         inkscape:connector-curvature="0" /></clipPath><radialGradient
       fx="0"
       fy="0"
       cx="0"
       cy="0"
       r="1"
       gradientUnits="userSpaceOnUse"
       gradientTransform="matrix(433.51157,-114.31216,-30.988131,-117.51779,321.72809,149.33174)"
       spreadMethod="pad"
       id="radialGradient594"><stop
         style="stop-opacity:1;stop-color:#ffffff"
         offset="0"
         id="stop582" /><stop
         style="stop-opacity:1;stop-color:#ffffff"
         offset="0.153886"
         id="stop584" /><stop
         style="stop-opacity:0;stop-color:#ffffff"
         offset="0.67166121"
         id="stop586" /><stop
         style="stop-opacity:0;stop-color:#ffffff"
         offset="0.969558"
         id="stop588" /><stop
         style="stop-opacity:0;stop-color:#ffffff"
         offset="0.98917977"
         id="stop590" /><stop
         style="stop-opacity:0;stop-color:#ffffff"
         offset="1"
         id="stop592" /></radialGradient><mask
       maskUnits="userSpaceOnUse"
       x="0"
       y="0"
       width="1"
       height="1"
       id="mask596"><g
         id="g606"><g
           clip-path="url(#clipPath580)"
           id="g604"><g
             id="g602"><g
               id="g600"><path
                 d="M -32768,32767 H 32767 V -32768 H -32768 Z"
                 style="fill:url(#radialGradient594);stroke:none"
                 id="path598"
                 inkscape:connector-curvature="0" /></g></g></g></g></mask><radialGradient
       fx="0"
       fy="0"
       cx="0"
       cy="0"
       r="1"
       gradientUnits="userSpaceOnUse"
       gradientTransform="matrix(433.51157,-114.31216,-30.988131,-117.51779,321.72809,149.33174)"
       spreadMethod="pad"
       id="radialGradient620"><stop
         style="stop-opacity:1;stop-color:#ffffff"
         offset="0"
         id="stop608" /><stop
         style="stop-opacity:1;stop-color:#ffffff"
         offset="0.153886"
         id="stop610" /><stop
         style="stop-opacity:1;stop-color:#ffffff"
         offset="0.67166121"
         id="stop612" /><stop
         style="stop-opacity:1;stop-color:#ffffff"
         offset="0.969558"
         id="stop614" /><stop
         style="stop-opacity:1;stop-color:#ffffff"
         offset="0.98917977"
         id="stop616" /><stop
         style="stop-opacity:1;stop-color:#ffffff"
         offset="1"
         id="stop618" /></radialGradient><clipPath
       clipPathUnits="userSpaceOnUse"
       id="clipPath646"><path
         d="M 40.578,0 H 800 V 158.68 C 572.957,142.902 282.021,101.843 40.578,0"
         id="path644"
         inkscape:connector-curvature="0" /></clipPath><radialGradient
       fx="0"
       fy="0"
       cx="0"
       cy="0"
       r="1"
       gradientUnits="userSpaceOnUse"
       gradientTransform="matrix(418.62607,65.410324,37.218967,-238.2014,453.09854,129.35101)"
       spreadMethod="pad"
       id="radialGradient658"><stop
         style="stop-opacity:1;stop-color:#0a3b5b"
         offset="0"
         id="stop652" /><stop
         style="stop-opacity:1;stop-color:#0a3b5b"
         offset="0.59552162"
         id="stop654" /><stop
         style="stop-opacity:1;stop-color:#082b3b"
         offset="1"
         id="stop656" /></radialGradient><clipPath
       clipPathUnits="userSpaceOnUse"
       id="clipPath668"><path
         d="M 0,800 H 800 V 0 H 0 Z"
         id="path666"
         inkscape:connector-curvature="0" /></clipPath><clipPath
       clipPathUnits="userSpaceOnUse"
       id="clipPath676"><path
         d="M 40.5781,158.68 H 800 V 0 H 40.5781 Z"
         id="path674"
         inkscape:connector-curvature="0" /></clipPath><clipPath
       clipPathUnits="userSpaceOnUse"
       id="clipPath680"><path
         d="M 800,0 V 158.68 C 572.957,142.902 282.021,101.843 40.578,0 Z"
         id="path678"
         inkscape:connector-curvature="0" /></clipPath><clipPath
       clipPathUnits="userSpaceOnUse"
       id="clipPath684"><path
         d="M -32768,32767 H 32767 V -32768 H -32768 Z"
         id="path682"
         inkscape:connector-curvature="0" /></clipPath><radialGradient
       fx="0"
       fy="0"
       cx="0"
       cy="0"
       r="1"
       gradientUnits="userSpaceOnUse"
       gradientTransform="matrix(416.55109,65.086105,14.467093,-92.589394,469.88138,136.92781)"
       spreadMethod="pad"
       id="radialGradient698"><stop
         style="stop-opacity:1;stop-color:#ffffff"
         offset="0"
         id="stop686" /><stop
         style="stop-opacity:1;stop-color:#ffffff"
         offset="0.153886"
         id="stop688" /><stop
         style="stop-opacity:0;stop-color:#ffffff"
         offset="0.67166121"
         id="stop690" /><stop
         style="stop-opacity:0;stop-color:#ffffff"
         offset="0.969558"
         id="stop692" /><stop
         style="stop-opacity:0;stop-color:#ffffff"
         offset="0.98917977"
         id="stop694" /><stop
         style="stop-opacity:0;stop-color:#ffffff"
         offset="1"
         id="stop696" /></radialGradient><mask
       maskUnits="userSpaceOnUse"
       x="0"
       y="0"
       width="1"
       height="1"
       id="mask700"><g
         id="g710"><g
           clip-path="url(#clipPath684)"
           id="g708"><g
             id="g706"><g
               id="g704"><path
                 d="M -32768,32767 H 32767 V -32768 H -32768 Z"
                 style="fill:url(#radialGradient698);stroke:none"
                 id="path702"
                 inkscape:connector-curvature="0" /></g></g></g></g></mask><radialGradient
       fx="0"
       fy="0"
       cx="0"
       cy="0"
       r="1"
       gradientUnits="userSpaceOnUse"
       gradientTransform="matrix(416.55109,65.086105,14.467093,-92.589394,469.88138,136.92781)"
       spreadMethod="pad"
       id="radialGradient724"><stop
         style="stop-opacity:1;stop-color:#ffffff"
         offset="0"
         id="stop712" /><stop
         style="stop-opacity:1;stop-color:#ffffff"
         offset="0.153886"
         id="stop714" /><stop
         style="stop-opacity:1;stop-color:#ffffff"
         offset="0.67166121"
         id="stop716" /><stop
         style="stop-opacity:1;stop-color:#ffffff"
         offset="0.969558"
         id="stop718" /><stop
         style="stop-opacity:1;stop-color:#ffffff"
         offset="0.98917977"
         id="stop720" /><stop
         style="stop-opacity:1;stop-color:#ffffff"
         offset="1"
         id="stop722" /></radialGradient><clipPath
       clipPathUnits="userSpaceOnUse"
       id="clipPath750"><path
         d="M 0,800 H 800 V 0 H 0 Z"
         id="path748"
         inkscape:connector-curvature="0" /></clipPath></defs><sodipodi:namedview
     pagecolor="#ffffff"
     bordercolor="#666666"
     borderopacity="1"
     objecttolerance="10"
     gridtolerance="10"
     guidetolerance="10"
     inkscape:pageopacity="0"
     inkscape:pageshadow="2"
     inkscape:window-width="1920"
     inkscape:window-height="1024"
     id="namedview4"
     showgrid="false"
     fit-margin-top="0"
     fit-margin-left="0"
     fit-margin-right="0"
     fit-margin-bottom="0"
     inkscape:zoom="0.76031244"
     inkscape:cx="190.30072"
     inkscape:cy="18.275332"
     inkscape:window-x="0"
     inkscape:window-y="0"
     inkscape:window-maximized="1"
     inkscape:current-layer="g10" /><g
     id="g10"
     inkscape:groupmode="layer"
     inkscape:label="109447-ONIPJK-841"
     transform="matrix(1.3333333,0,0,-1.3333333,-343.03266,895.66063)"><g
       id="g104"
       transform="translate(542.7255,529.01949)"><path
         d="m 0,0 c 0,-78.825 -63.9,-142.726 -142.726,-142.726 -78.825,0 -142.725,63.901 -142.725,142.726 0,78.825 63.9,142.726 142.725,142.726 C -63.9,142.726 0,78.825 0,0"
         style="fill:#fafbfb;fill-opacity:1;fill-rule:nonzero;stroke:none"
         id="path106"
         inkscape:connector-curvature="0" /></g><g
       id="g108"
       transform="translate(332.6635,580.11279)"><path
         d="m 0,0 c 0,-12.408 -10.059,-22.467 -22.468,-22.467 -12.408,0 -22.467,10.059 -22.467,22.467 0,12.409 10.059,22.468 22.467,22.468 C -10.059,22.468 0,12.409 0,0"
         style="fill:#e0e0e0;fill-opacity:1;fill-rule:nonzero;stroke:none"
         id="path110"
         inkscape:connector-curvature="0" /></g><g
       id="g112"
       transform="translate(289.6503,578.19139)"><path
         d="m 0,0 c 0,12.408 10.059,22.467 22.467,22.467 5.716,0 10.929,-2.137 14.894,-5.652 -4.116,4.644 -10.122,7.574 -16.816,7.574 -12.408,0 -22.467,-10.059 -22.467,-22.468 0,-6.692 2.93,-12.699 7.574,-16.815 C 2.137,-10.929 0,-5.715 0,0"
         style="fill:#bdbdbd;fill-opacity:1;fill-rule:nonzero;stroke:none"
         id="path114"
         inkscape:connector-curvature="0" /></g><g
       id="g116"
       transform="translate(311.0824,602.58059)"><path
         d="m 0,0 c -0.148,0 -0.295,-0.009 -0.443,-0.011 12.203,-0.238 22.024,-10.197 22.024,-22.457 0,-12.408 -10.059,-22.467 -22.468,-22.467 -12.259,0 -22.219,9.821 -22.456,22.024 -0.003,-0.148 -0.011,-0.295 -0.011,-0.443 0,-12.898 10.456,-23.354 23.354,-23.354 12.898,0 23.354,10.456 23.354,23.354 C 23.354,-10.456 12.898,0 0,0"
         style="fill:#f5f5f5;fill-opacity:1;fill-rule:nonzero;stroke:none"
         id="path118"
         inkscape:connector-curvature="0" /></g><g
       id="g120"
       transform="translate(470.6493,619.47749)"><path
         d="m 0,0 c 0,-6.205 -5.03,-11.234 -11.234,-11.234 -6.204,0 -11.234,5.029 -11.234,11.234 0,6.204 5.03,11.233 11.234,11.233 C -5.03,11.233 0,6.204 0,0"
         style="fill:#e0e0e0;fill-opacity:1;fill-rule:nonzero;stroke:none"
         id="path122"
         inkscape:connector-curvature="0" /></g><g
       id="g124"
       transform="translate(449.1425,618.51659)"><path
         d="m 0,0 c 0,6.204 5.029,11.234 11.233,11.234 2.858,0 5.465,-1.069 7.448,-2.826 -2.059,2.321 -5.062,3.786 -8.409,3.786 -6.204,0 -11.233,-5.029 -11.233,-11.233 0,-3.347 1.465,-6.35 3.787,-8.408 C 1.068,-5.464 0,-2.857 0,0"
         style="fill:#bdbdbd;fill-opacity:1;fill-rule:nonzero;stroke:none"
         id="path126"
         inkscape:connector-curvature="0" /></g><g
       id="g128"
       transform="translate(459.8583,630.71089)"><path
         d="m 0,0 c -0.074,0 -0.147,-0.004 -0.222,-0.005 6.102,-0.119 11.013,-5.099 11.013,-11.228 0,-6.205 -5.03,-11.234 -11.234,-11.234 -6.13,0 -11.11,4.91 -11.228,11.012 -0.002,-0.074 -0.006,-0.148 -0.006,-0.222 0,-6.449 5.228,-11.677 11.677,-11.677 6.449,0 11.677,5.228 11.677,11.677 C 11.677,-5.228 6.449,0 0,0"
         style="fill:#f5f5f5;fill-opacity:1;fill-rule:nonzero;stroke:none"
         id="path130"
         inkscape:connector-curvature="0" /></g><g
       id="g132"
       transform="translate(526.75969,505.54389)"><path
         d="m 0,0 c 0,-15.482 -12.551,-28.032 -28.032,-28.032 -15.483,0 -28.033,12.55 -28.033,28.032 0,15.482 12.55,28.033 28.033,28.033 C -12.551,28.033 0,15.482 0,0"
         style="fill:#e0e0e0;fill-opacity:1;fill-rule:nonzero;stroke:none"
         id="path134"
         inkscape:connector-curvature="0" /></g><g
       id="g136"
       transform="translate(473.0917,503.14649)"><path
         d="m 0,0 c 0,15.482 12.551,28.033 28.033,28.033 7.131,0 13.636,-2.667 18.582,-7.053 -5.135,5.794 -12.629,9.45 -20.979,9.45 -15.483,0 -28.033,-12.551 -28.033,-28.033 0,-8.351 3.656,-15.844 9.45,-20.98 C 2.667,-13.635 0,-7.131 0,0"
         style="fill:#bdbdbd;fill-opacity:1;fill-rule:nonzero;stroke:none"
         id="path138"
         inkscape:connector-curvature="0" /></g><g
       id="g140"
       transform="translate(499.83289,533.57659)"><path
         d="m 0,0 c -0.186,0 -0.368,-0.01 -0.553,-0.014 15.226,-0.296 27.48,-12.722 27.48,-28.019 0,-15.482 -12.551,-28.032 -28.032,-28.032 -15.297,0 -27.724,12.254 -28.019,27.48 -0.004,-0.185 -0.015,-0.368 -0.015,-0.554 0,-16.092 13.046,-29.138 29.139,-29.138 16.093,0 29.139,13.046 29.139,29.138 C 29.139,-13.046 16.093,0 0,0"
         style="fill:#f5f5f5;fill-opacity:1;fill-rule:nonzero;stroke:none"
         id="path142"
         inkscape:connector-curvature="0" /></g><g
       id="g144"
       transform="translate(451.85149,440.05269)"><path
         d="m 0,0 c 0,-15.482 -12.551,-28.032 -28.033,-28.032 -15.482,0 -28.032,12.55 -28.032,28.032 0,15.482 12.55,28.033 28.032,28.033 C -12.551,28.033 0,15.482 0,0"
         style="fill:#e0e0e0;fill-opacity:1;fill-rule:nonzero;stroke:none"
         id="path146"
         inkscape:connector-curvature="0" /></g><g
       id="g148"
       transform="translate(398.18349,437.65529)"><path
         d="m 0,0 c 0,15.482 12.551,28.033 28.033,28.033 7.13,0 13.635,-2.668 18.582,-7.053 -5.135,5.794 -12.629,9.45 -20.98,9.45 -15.482,0 -28.032,-12.551 -28.032,-28.033 0,-8.351 3.656,-15.844 9.45,-20.98 C 2.667,-13.636 0,-7.131 0,0"
         style="fill:#bdbdbd;fill-opacity:1;fill-rule:nonzero;stroke:none"
         id="path150"
         inkscape:connector-curvature="0" /></g><g
       id="g152"
       transform="translate(424.9247,468.08539)"><path
         d="m 0,0 c -0.186,0 -0.368,-0.011 -0.553,-0.014 15.226,-0.296 27.48,-12.722 27.48,-28.019 0,-15.482 -12.551,-28.032 -28.033,-28.032 -15.296,0 -27.723,12.254 -28.019,27.48 -0.003,-0.185 -0.014,-0.368 -0.014,-0.554 0,-16.092 13.046,-29.138 29.139,-29.138 16.093,0 29.139,13.046 29.139,29.138 C 29.139,-13.046 16.093,0 0,0"
         style="fill:#f5f5f5;fill-opacity:1;fill-rule:nonzero;stroke:none"
         id="path154"
         inkscape:connector-curvature="0" /></g><g
       id="g156"
       transform="translate(384.1073,457.08399)"><path
         d="m 0,0 c 0,-8.718 -7.067,-15.786 -15.785,-15.786 -8.718,0 -15.786,7.068 -15.786,15.786 0,8.718 7.068,15.786 15.786,15.786 C -7.067,15.786 0,8.718 0,0"
         style="fill:#e0e0e0;fill-opacity:1;fill-rule:nonzero;stroke:none"
         id="path158"
         inkscape:connector-curvature="0" /></g><g
       id="g160"
       transform="translate(353.8866,455.73389)"><path
         d="m 0,0 c 0,8.718 7.067,15.786 15.786,15.786 4.015,0 7.678,-1.502 10.464,-3.972 -2.892,3.263 -7.112,5.322 -11.814,5.322 -8.719,0 -15.786,-7.068 -15.786,-15.786 0,-4.703 2.058,-8.922 5.321,-11.814 C 1.502,-7.678 0,-4.016 0,0"
         style="fill:#bdbdbd;fill-opacity:1;fill-rule:nonzero;stroke:none"
         id="path162"
         inkscape:connector-curvature="0" /></g><g
       id="g164"
       transform="translate(368.9447,472.86959)"><path
         d="m 0,0 c -0.104,0 -0.207,-0.006 -0.312,-0.008 8.575,-0.166 15.475,-7.164 15.475,-15.778 0,-8.718 -7.067,-15.785 -15.786,-15.785 -8.613,0 -15.611,6.9 -15.777,15.474 -0.002,-0.104 -0.008,-0.207 -0.008,-0.312 0,-9.062 7.346,-16.408 16.408,-16.408 9.063,0 16.409,7.346 16.409,16.408 C 16.409,-7.346 9.063,0 0,0"
         style="fill:#f5f5f5;fill-opacity:1;fill-rule:nonzero;stroke:none"
         id="path166"
         inkscape:connector-curvature="0" /></g><g
       id="g168"
       transform="translate(407.2382,478.91449)"><path
         d="m 0,0 c 0,-5.277 -4.278,-9.555 -9.556,-9.555 -5.277,0 -9.554,4.278 -9.554,9.555 0,5.277 4.277,9.555 9.554,9.555 C -4.278,9.555 0,5.277 0,0"
         style="fill:#e0e0e0;fill-opacity:1;fill-rule:nonzero;stroke:none"
         id="path170"
         inkscape:connector-curvature="0" /></g><g
       id="g172"
       transform="translate(388.94469,478.09719)"><path
         d="m 0,0 c 0,5.277 4.278,9.555 9.555,9.555 2.431,0 4.648,-0.909 6.334,-2.404 -1.75,1.975 -4.305,3.222 -7.151,3.222 -5.277,0 -9.555,-4.278 -9.555,-9.556 0,-2.846 1.246,-5.4 3.221,-7.151 C 0.909,-4.647 0,-2.431 0,0"
         style="fill:#bdbdbd;fill-opacity:1;fill-rule:nonzero;stroke:none"
         id="path174"
         inkscape:connector-curvature="0" /></g><g
       id="g176"
       transform="translate(398.06,488.46969)"><path
         d="m 0,0 c -0.063,0 -0.126,-0.003 -0.189,-0.005 5.19,-0.1 9.367,-4.336 9.367,-9.55 0,-5.278 -4.278,-9.555 -9.555,-9.555 -5.214,0 -9.45,4.176 -9.551,9.366 -10e-4,-0.063 -0.005,-0.125 -0.005,-0.188 0,-5.485 4.447,-9.932 9.933,-9.932 5.485,0 9.932,4.447 9.932,9.932 C 9.932,-4.447 5.485,0 0,0"
         style="fill:#f5f5f5;fill-opacity:1;fill-rule:nonzero;stroke:none"
         id="path178"
         inkscape:connector-curvature="0" /></g><g
       id="g180"
       transform="translate(535.4218,545.14449)"><path
         d="m 0,0 c 0,-5.969 -4.839,-10.808 -10.808,-10.808 -5.967,0 -10.806,4.839 -10.806,10.808 0,5.969 4.839,10.807 10.806,10.807 C -4.839,10.807 0,5.969 0,0"
         style="fill:#e0e0e0;fill-opacity:1;fill-rule:nonzero;stroke:none"
         id="path182"
         inkscape:connector-curvature="0" /></g><g
       id="g184"
       transform="translate(514.7313,544.22019)"><path
         d="m 0,0 c 0,5.969 4.839,10.807 10.808,10.807 2.749,0 5.256,-1.028 7.164,-2.719 -1.98,2.234 -4.869,3.643 -8.089,3.643 -5.968,0 -10.807,-4.838 -10.807,-10.807 0,-3.219 1.409,-6.109 3.643,-8.089 C 1.028,-5.257 0,-2.749 0,0"
         style="fill:#bdbdbd;fill-opacity:1;fill-rule:nonzero;stroke:none"
         id="path186"
         inkscape:connector-curvature="0" /></g><g
       id="g188"
       transform="translate(525.0409,555.95159)"><path
         d="m 0,0 c -0.071,0 -0.142,-0.004 -0.213,-0.005 5.87,-0.114 10.594,-4.905 10.594,-10.802 0,-5.969 -4.839,-10.808 -10.808,-10.808 -5.896,0 -10.687,4.724 -10.802,10.594 0,-0.071 -0.004,-0.141 -0.004,-0.213 0,-6.204 5.029,-11.233 11.233,-11.233 6.204,0 11.234,5.029 11.234,11.233 C 11.234,-5.029 6.204,0 0,0"
         style="fill:#f5f5f5;fill-opacity:1;fill-rule:nonzero;stroke:none"
         id="path190"
         inkscape:connector-curvature="0" /></g><g
       id="g192"
       transform="translate(338.8358,531.76999)"><path
         d="m 0,0 c 0,-7.868 -6.379,-14.247 -14.247,-14.247 -7.869,0 -14.247,6.379 -14.247,14.247 0,7.869 6.378,14.247 14.247,14.247 C -6.379,14.247 0,7.869 0,0"
         style="fill:#e0e0e0;fill-opacity:1;fill-rule:nonzero;stroke:none"
         id="path194"
         inkscape:connector-curvature="0" /></g><g
       id="g196"
       transform="translate(311.56,530.55169)"><path
         d="m 0,0 c 0,7.868 6.379,14.247 14.247,14.247 3.624,0 6.93,-1.355 9.444,-3.584 -2.609,2.944 -6.418,4.802 -10.662,4.802 -7.869,0 -14.247,-6.378 -14.247,-14.247 0,-4.244 1.858,-8.052 4.802,-10.662 C 1.355,-6.93 0,-3.624 0,0"
         style="fill:#bdbdbd;fill-opacity:1;fill-rule:nonzero;stroke:none"
         id="path198"
         inkscape:connector-curvature="0" /></g><g
       id="g200"
       transform="translate(325.1508,546.01709)"><path
         d="m 0,0 c -0.094,0 -0.187,-0.005 -0.281,-0.007 7.738,-0.15 13.966,-6.466 13.966,-14.24 0,-7.868 -6.379,-14.247 -14.247,-14.247 -7.774,0 -14.09,6.228 -14.24,13.966 -0.002,-0.094 -0.007,-0.187 -0.007,-0.281 0,-8.179 6.63,-14.809 14.809,-14.809 8.179,0 14.809,6.63 14.809,14.809 C 14.809,-6.63 8.179,0 0,0"
         style="fill:#f5f5f5;fill-opacity:1;fill-rule:nonzero;stroke:none"
         id="path202"
         inkscape:connector-curvature="0" /></g><g
       id="g204"
       transform="translate(368.9447,583.74319)"><path
         d="m 0,0 c 0,-6.592 -5.344,-11.937 -11.937,-11.937 -6.592,0 -11.937,5.345 -11.937,11.937 0,6.593 5.345,11.937 11.937,11.937 C -5.344,11.937 0,6.593 0,0"
         style="fill:#e0e0e0;fill-opacity:1;fill-rule:nonzero;stroke:none"
         id="path206"
         inkscape:connector-curvature="0" /></g><g
       id="g208"
       transform="translate(346.0922,582.72259)"><path
         d="m 0,0 c 0,6.592 5.344,11.937 11.937,11.937 3.036,0 5.806,-1.136 7.913,-3.003 -2.187,2.467 -5.378,4.024 -8.934,4.024 -6.593,0 -11.937,-5.345 -11.937,-11.937 0,-3.557 1.557,-6.747 4.024,-8.934 C 1.136,-5.807 0,-3.037 0,0"
         style="fill:#bdbdbd;fill-opacity:1;fill-rule:nonzero;stroke:none"
         id="path210"
         inkscape:connector-curvature="0" /></g><g
       id="g212"
       transform="translate(357.47889,595.68019)"><path
         d="m 0,0 c -0.079,0 -0.157,-0.004 -0.235,-0.006 6.483,-0.126 11.701,-5.417 11.701,-11.931 0,-6.592 -5.344,-11.937 -11.937,-11.937 -6.513,0 -11.805,5.218 -11.931,11.702 -0.001,-0.079 -0.006,-0.157 -0.006,-0.236 0,-6.852 5.555,-12.408 12.408,-12.408 6.853,0 12.408,5.556 12.408,12.408 C 12.408,-5.555 6.853,0 0,0"
         style="fill:#f5f5f5;fill-opacity:1;fill-rule:nonzero;stroke:none"
         id="path214"
         inkscape:connector-curvature="0" /></g><g
       id="g216"
       transform="translate(343.54679,448.73829)"><path
         d="m 0,0 c 0,-4.446 -3.604,-8.05 -8.05,-8.05 -4.446,0 -8.05,3.604 -8.05,8.05 0,4.446 3.604,8.05 8.05,8.05 C -3.604,8.05 0,4.446 0,0"
         style="fill:#e0e0e0;fill-opacity:1;fill-rule:nonzero;stroke:none"
         id="path218"
         inkscape:connector-curvature="0" /></g><g
       id="g220"
       transform="translate(328.1352,448.04979)"><path
         d="m 0,0 c 0,4.446 3.604,8.05 8.05,8.05 2.048,0 3.916,-0.766 5.336,-2.025 -1.474,1.663 -3.626,2.713 -6.025,2.713 -4.445,0 -8.049,-3.604 -8.049,-8.05 0,-2.398 1.049,-4.55 2.713,-6.024 C 0.766,-3.916 0,-2.048 0,0"
         style="fill:#bdbdbd;fill-opacity:1;fill-rule:nonzero;stroke:none"
         id="path222"
         inkscape:connector-curvature="0" /></g><g
       id="g224"
       transform="translate(335.8144,456.78809)"><path
         d="m 0,0 c -0.053,0 -0.106,-0.003 -0.159,-0.004 4.372,-0.085 7.891,-3.653 7.891,-8.046 0,-4.446 -3.604,-8.05 -8.05,-8.05 -4.392,0 -7.961,3.519 -8.046,7.892 -10e-4,-0.054 -0.004,-0.106 -0.004,-0.16 0,-4.621 3.746,-8.367 8.368,-8.367 4.621,0 8.368,3.746 8.368,8.367 C 8.368,-3.746 4.621,0 0,0"
         style="fill:#f5f5f5;fill-opacity:1;fill-rule:nonzero;stroke:none"
         id="path226"
         inkscape:connector-curvature="0" /></g></g></svg>